<svg xmlns="http://www.w3.org/2000/svg" xmlns:xlink="http://www.w3.org/1999/xlink" viewBox="0 0 750 500" xmlns:v="https://vecta.io/nano"><style><![CDATA[.B{fill:#263238}.C{fill:#7dc1d3}.D{fill:#e0e0e0}.E{opacity:.3}.F{fill:#455a64}.G{fill:#fafafa}.H{fill:#ebebeb}]]></style><path d="M24.1 79.59h152.3v101.97H24.1z" fill="#fff"/><g class="D"><path d="M176.39 181.57v-1.86-5.38l-.05-20.51-.12-74.23.22.22-152.28.06h0l.27-.28v102l-.25-.25 109.72.12 31.34.07h8.34 2.15.74-.71-2.12-8.29l-31.29.06-109.88.13h-.25v-.25-102-.27h.29l152.28.06h.22v.21l-.11 74.37-.06 20.46v5.34c0 1.22-.16 1.93-.16 1.93z"/><path d="M24.1 88.69c0-.15 34.06-.27 76.08-.27l76.09.27c0 .15-34.06.28-76.09.28s-76.08-.12-76.08-.28z"/><g class="E"><path d="M30.1,84.1a1.22,1.22,0,0,1-2.44,0,1.22,1.22,0,0,1,2.44,0Z"/></g><g class="E"><path d="M34.29 84.1a1.22 1.22 0 1 1-1.22-1.22 1.22 1.22 0 0 1 1.22 1.22z"/></g><g class="E"><path d="M38.41 84.1a1.22 1.22 0 1 1-1.22-1.22 1.22 1.22 0 0 1 1.22 1.22z"/></g><path d="M37.19 99.33h40.62v40.63H37.19z"/><use xlink:href="#B"/><use xlink:href="#B" y="7.55"/><use xlink:href="#B" y="15.1"/><path d="M126.56 133.46a9.76 9.76 0 0 1-1.64.11l-4.48.08-14.79.08c-5.79 0-11 0-14.79-.08l-4.48-.08a10 10 0 0 1-1.65-.11 10 10 0 0 1 1.65-.11l4.48-.08 14.79-.08 14.79.08 4.48.08a9.76 9.76 0 0 1 1.64.11zm-86.83 20.19h19.09v19.09H39.73zm34.62 0h19.09v19.09H74.35zm34.63 0h19.09v19.09h-19.09zm34.62 0h19.09v19.09H143.6z"/></g><path d="M198.87 30.04h131.19v53.29H198.87z" fill="#fff"/><g class="D"><path d="M330.06 83.33v-1-2.77-10.6l-.08-39 .15.15-131.19.06h0l.2-.21v53.29l-.19-.2 94.06.09 27.28.06h7.31 0-7.26l-27.24.05-94.19.1h-.2v-.2-53.29-.21h.21l131.19.07h.14V30l-.08 39.06v10.57 2.74c0 .63-.11.96-.11.96z"/><path d="M199 37.23c0-.12 29.32-.21 65.48-.21l65.5.21c0 .12-29.32.21-65.5.21s-65.48-.1-65.48-.21z"/></g><g class="E H"><path d="M204.49 34a.95.95 0 1 1-1-.95 1 1 0 0 1 1 .95z"/></g><g class="E H"><path d="M207.75 34a.95.95 0 1 1-.95-.95 1 1 0 0 1 .95.95z"/></g><g class="E H"><circle cx="210.02" cy="34.01" r=".95"/></g><g class="D"><path d="M210.02 45.89h31.69v31.69h-31.69zM321 54.38c0 .12-16.31.21-36.42.21s-36.42-.09-36.42-.21 16.31-.21 36.42-.21l36.42.21zm0 6.46c0 .11-16.31.2-36.42.2s-36.42-.09-36.42-.2 16.31-.21 36.42-.21l36.42.21zm-26 6.45a1.61 1.61 0 0 1-.48 0h-1.36l-5 .07-16.57.06-16.59.02-5-.07h-1.37a1.68 1.68 0 0 1-.48 0 2.32 2.32 0 0 1 .48 0H250l5-.06 16.58-.07 16.57.07 5 .06h1.36a2.2 2.2 0 0 1 .49-.08zm389 33.87a4.68 4.68 0 0 1 .74-.85l2.16-2.16 7.24-7 .07-.06v.36l-7.29-6.87-2.17-2.12a5 5 0 0 1-.75-.83 4.57 4.57 0 0 1 .88.68l2.28 2 7.39 6.76.2.19-.2.18-.06.06-7.35 6.9-2.26 2.06a6.07 6.07 0 0 1-.88.7zm-22.13-19.54a5.39 5.39 0 0 1-.74.84L659 84.63l-7.24 7-.07.06v-.37l7.29 6.88 2.17 2.12a4.53 4.53 0 0 1 .75.83 5 5 0 0 1-.88-.69l-2.28-2-7.39-6.77-.2-.18.2-.18.06-.07 7.35-6.9 2.24-2.04a4.66 4.66 0 0 1 .87-.7zm5.69 24.14c-.13-.05 2.19-6.58 5.19-14.59l5.66-14.42c.13.05-2.2 6.58-5.19 14.59s-5.53 14.47-5.66 14.42zm41.63 13.98v-1.09-3.14-11.91l-.11-42.56.21.21h-72 0l.25-.25v58.7l-.22-.22 52 .11 14.74.06h3.92 1.36-.33-1-3.87l-14.7.06-52.17.11h-.22v-.23-58.7-.25h.26 72 .21V61l-.11 42.69v11.86 3.11c0 .72-.22 1.08-.22 1.08z"/><path d="M709.76 69.75c0 .14-16.27.25-36.33.25s-36.32-.11-36.32-.25 16.26-.25 36.32-.25l36.33.25zM643 65.46a1 1 0 1 1-1-1 1 1 0 0 1 1 1zm3.56 0a1 1 0 1 1-1-1 1 1 0 0 1 1 1zm3.53 0a1 1 0 1 1-1-1 1 1 0 0 1 1 1z"/></g><path d="M692.59 377.9c4.16-2.15 9.07-2.43 13.69-1.66 2.48.41 5.07 1.15 6.76 3s2 5.14.07 6.75a6.55 6.55 0 0 1-4.26 1.08c-3.62 0-7.64-.68-10.53 1.5-1.65 1.24-2.74 3.3-4.72 3.91a4.66 4.66 0 0 1-5.13-2.28 8 8 0 0 1-.58-5.88 9 9 0 0 1 4.7-6.42zm-9.54-18.41c2.55 3.63 7.5 2.43 9.79.21s3.26-5.44 4.15-8.5c2-7 4-14.36 2.55-21.5a12 12 0 0 0-2.75-5.85 6.23 6.23 0 0 0-5.91-2c-2.5.66-4 3.1-5.17 5.42a51.26 51.26 0 0 0-5.06 22c0 3.54.4 7.25 2.4 10.18m-6.99 5.25c2.76-3.28 3.29-8.06 2.06-12.17a23.46 23.46 0 0 0-7.21-10.46 38.88 38.88 0 0 0-12.91-7.62 13.86 13.86 0 0 0-5.81-1 6.12 6.12 0 0 0-4.88 3c-1.35 2.59 0 5.74 1.36 8.3a98.45 98.45 0 0 0 8.48 12.92c2.54 3.27 5.45 6.51 9.33 8s7.9 1.31 9.95-1.38" class="H"/><g class="D"><path d="M682.88 414.34a8.29 8.29 0 0 0 .23-1.66l.44-4.51c.18-1.8.49-4.15 1-6.61a51.47 51.47 0 0 1 2.41-7.81 28.8 28.8 0 0 1 4-7.06 15 15 0 0 1 5-4.19 14.18 14.18 0 0 1 4.25-1.32 7.69 7.69 0 0 0 1.64-.24 8.6 8.6 0 0 0-1.67 0 12.77 12.77 0 0 0-4.43 1.15 14.89 14.89 0 0 0-5.31 4.22 28.24 28.24 0 0 0-4.14 7.21 47.94 47.94 0 0 0-2.38 7.93 56.11 56.11 0 0 0-.88 6.7l-.23 4.54a7.58 7.58 0 0 0 .07 1.65z"/><path d="M683.19 410.87a3.39 3.39 0 0 0 0-.77v-2.19l.1-8.06c.16-6.8.75-14.12 1.88-24.43 1.07-9.7 2.51-21 4-28.34.32-1.67.65-3.17 1-4.48s.54-2.46.78-3.38l.52-2.13a3.24 3.24 0 0 0 .13-.76 4.49 4.49 0 0 0-.27.72q-.24.82-.63 2.1c-.28.92-.57 2-.9 3.36l-1.07 4.47a249.06 249.06 0 0 0-4.23 26.29c-1.13 10.34-1.64 19.76-1.69 26.57l.12 8.07.14 2.19a3.87 3.87 0 0 0 .12.77z"/><path d="M683.24 392.71a17.42 17.42 0 0 0 0-2.29c-.08-1.47-.29-3.6-.7-6.2a82.83 82.83 0 0 0-2-9 74 74 0 0 0-3.78-10.7 57.22 57.22 0 0 0-11.1-17.29 27.72 27.72 0 0 0-2.61-2.42l-1.12-.95-1-.7a14.27 14.27 0 0 0-1.93-1.23 68.67 68.67 0 0 1 6.32 5.64 59.9 59.9 0 0 1 10.82 17.22 84.12 84.12 0 0 1 3.81 10.6 89.48 89.48 0 0 1 2.05 8.91l.92 6.14a13.57 13.57 0 0 0 .32 2.27zm-17.55 32.03l1.82 24.92h32.02l1.82-24.92h-35.66z"/><path d="M662.59 414.91h42.57v9.82h-42.57z"/></g><path d="M662.59 448.71v2.72h2 39.87v-2.72h-41.87z" class="H"/><path d="M666.55 456.23l-1.96-4.8h38.35l-2.29 4.8h-34.1z" class="D"/><path d="M700.75 432.88s0 .09-.15.23l-.48.64-1.86 2.38-.08.11-.09-.11-4.58-6.34h.27l-4.52 6.39-.14.2-.16-.19-5.35-6.36h.31l-.29.37-4.79 6-.16.2-.14-.21-4.52-6.39h.26l-5.55 6.33-.1.11-.08-.12-1.74-2.93-.45-.78a1.39 1.39 0 0 1-.13-.27 1.6 1.6 0 0 0 .18.24l.5.75 1.83 2.87h-.18l5.47-6.41.14-.16.12.17 4.56 6.36h-.31l4.78-6 .29-.37.15-.19.16.19 5.33 6.38H689l4.56-6.36.14-.18.13.18 4.48 6.41h-.16l1.94-2.33.52-.6a1.17 1.17 0 0 1 .14-.21zm1.04-8.31c0 .11-8 .2-17.92.2s-17.92-.09-17.92-.2 8-.2 17.92-.2l17.92.2zm1.62 27.13c0 .11-8.72.2-19.47.2s-19.48-.09-19.48-.2 8.72-.2 19.48-.2l19.47.2z" fill="#f5f5f5"/><g class="F"><path d="M109.14 104.09H620a6.74 6.74 0 0 1 6.74 6.74V437a14.57 14.57 0 0 1-14.57 14.57H116A14.57 14.57 0 0 1 101.39 437V111.85a7.75 7.75 0 0 1 7.75-7.76z"/><path d="M79.42,425.83H648.63a0,0,0,0,1,0,0V442.5a13.72,13.72,0,0,1-13.72,13.72H93.14A13.72,13.72,0,0,1,79.42,442.5V425.83a0,0,0,0,1,0,0Z"/></g><path d="M115.49 117.9h495.7v293.4h-495.7z" class="D"/><path d="M312.29 425.83l7.06 11.23h99.39l6.56-11.23H312.29zM130.2 134.9h467.48v276.4H130.2z" class="B"/><g class="D"><path d="M166.07 403.18c-.24 0-.44-58.86-.44-131.46l.44-131.49c.24 0 .44 58.86.44 131.49l-.44 131.46z"/><use xlink:href="#C"/><path d="M157.22 149.15c0 .24-3.4.44-7.59.44s-7.59-.2-7.59-.44 3.4-.44 7.59-.44 7.59.2 7.59.44z"/><use xlink:href="#C" y="16.08"/><path d="M156.64 196.23c0 .25-3.4.44-7.59.44s-7.6-.19-7.6-.44 3.4-.43 7.6-.43 7.59.2 7.59.43zm0 16.09c0 .24-3.4.44-7.59.44s-7.6-.2-7.6-.44 3.4-.44 7.6-.44 7.59.19 7.59.44z"/><use xlink:href="#C" y="64.33"/><use xlink:href="#C" y="80.41"/><path d="M156.64 260.56c0 .25-3.4.44-7.59.44s-7.6-.19-7.6-.44 3.4-.43 7.6-.43 7.59.19 7.59.43zm0 16.09c0 .24-3.4.43-7.59.43s-7.6-.19-7.6-.43 3.4-.44 7.6-.44 7.59.19 7.59.44z"/><use xlink:href="#C" y="128.66"/><use xlink:href="#C" y="144.74"/><path d="M156.64 324.89c0 .25-3.4.44-7.59.44s-7.6-.19-7.6-.44 3.4-.43 7.6-.43 7.59.19 7.59.43zm0 16.11c0 .24-3.4.43-7.59.43s-7.6-.19-7.6-.43 3.4-.44 7.6-.44 7.59.17 7.59.44z"/><use xlink:href="#C" y="192.99"/><use xlink:href="#C" y="209.07"/><path d="M156.64 389.22c0 .25-3.4.44-7.59.44s-7.6-.19-7.6-.44 3.4-.44 7.6-.44 7.59.22 7.59.44z"/></g><g class="C"><use xlink:href="#D"/><path d="M217.51 389.22c0 .25-8.82.44-19.7.44s-19.71-.19-19.71-.44 8.82-.44 19.71-.44 19.7.22 19.7.44zm54.89-192.99c0 .25-16.51.44-36.87.44s-36.87-.19-36.87-.44 16.5-.43 36.87-.43l36.87.43z"/></g><g class="D"><path d="M357.68 196.23c0 .25-16.51.44-36.87.44s-36.88-.19-36.88-.44 16.51-.43 36.88-.43l36.87.43z"/><use xlink:href="#E"/><use xlink:href="#E" y="16.08"/><path d="M399.9 276.65c0 .24-24.34.43-54.34.43s-54.35-.19-54.35-.43 24.33-.44 54.35-.44l54.34.44zm-32.29-32.17c0 .24-24.33.44-54.33.44s-54.35-.2-54.35-.44 24.33-.44 54.35-.44l54.33.44zm132.81 0c0 .24-24.33.44-54.33.44s-54.35-.2-54.35-.44 24.33-.44 54.35-.44l54.33.44z"/></g><path d="M454.24 212.32c0 .24-24.34.44-54.34.44s-54.34-.2-54.34-.44 24.32-.44 54.34-.44l54.34.44zm75.07 64.33c0 .24-24.33.43-54.34.43s-54.34-.19-54.34-.43 24.32-.44 54.34-.44l54.34.44z" class="G"/><path d="M514.32 228.4c0 .24-37.78.44-84.38.44s-84.38-.2-84.38-.44 37.77-.44 84.38-.44l84.38.44z" class="F"/><g class="G"><use xlink:href="#D" y="17.03"/><use xlink:href="#D" y="210.02"/><path d="M237 244.48c0 .24-8.82.44-19.71.44s-19.71-.2-19.71-.44 8.83-.44 19.71-.44 19.71.2 19.71.44z"/></g><g class="C"><use xlink:href="#D" x="335.42" y="81.36"/><path d="M272.4 308.72c0 .24-16.51.44-36.87.44s-36.87-.2-36.87-.44 16.5-.44 36.87-.44l36.87.44z"/></g><g class="D"><path d="M357.68 308.72c0 .24-16.51.44-36.87.44s-36.88-.2-36.88-.44 16.51-.44 36.88-.44l36.87.44z"/><use xlink:href="#E" y="112.48"/><use xlink:href="#E" y="128.56"/><path d="M367.61 357c0 .25-24.33.44-54.33.44s-54.35-.19-54.35-.44 24.33-.43 54.35-.43l54.33.43zm132.81 0c0 .25-24.33.44-54.33.44s-54.35-.19-54.35-.44 24.33-.43 54.35-.43l54.33.43z"/></g><path d="M454.24 324.8c0 .24-24.34.44-54.34.44s-54.34-.2-54.34-.44 24.32-.44 54.34-.44l54.34.44z" class="G"/><path d="M514.32 340.88c0 .24-37.78.44-84.38.44s-84.38-.2-84.38-.44 37.77-.44 84.38-.44l84.38.44z" class="F"/><path d="M237 357c0 .25-8.82.44-19.71.44s-19.71-.19-19.71-.44 8.83-.43 19.71-.43 19.71.15 19.71.43z" class="G"/><path d="M552.93 357c0 .25-8.82.44-19.7.44s-19.71-.19-19.71-.44 8.82-.43 19.71-.43 19.7.15 19.7.43z" class="C"/><path d="M563.44 436c0 .14-100.64.26-224.76.26s-224.78-.14-224.78-.26 100.62-.26 224.78-.26l224.76.26z" class="B"/><g class="C"><path d="M97.07 347.83a57.06 57.06 0 0 0-54.45-14.95 99.15 99.15 0 0 0 55.1 17.21M78.6 282.43c2.27-16.05-4-34.1-16-45.76-.39 15.9 6.32 33.79 16 45.76"/><path d="M88.21 312.74a85.64 85.64 0 0 0-39.35-37.61 54.08 54.08 0 0 0 39.5 37.78m1.84 5.67c-9.69.28-19.5-.06-28.87-2.54S43 308.79 36.74 301.37a96.45 96.45 0 0 1 53.31 16.27m-4.77-18.32c4.92-18.44 13-31.19 27.53-41.52a38.33 38.33 0 0 1-27.53 41.52m36.58 31.8a27.28 27.28 0 0 0-16.58-25.28c.81 9.52 8.29 20.53 16.58 25.28m4.63-15.55a40.68 40.68 0 0 1 26.64-34.69c-3.35 15.41-12.25 28.24-26.64 34.69m-6.98 27.59c3.42-4.89 9-7.93 14.77-9.44s11.8-1.65 17.76-1.77A41.53 41.53 0 0 1 120 345.31m-7.41 37.14a45.5 45.5 0 0 1 55.56 26.33C148 405 128.05 396 112.59 382.45M90.44 368.8c3.35 9.91 2.7 21.89-4.75 30.43a36.34 36.34 0 0 1 4.75-30.43m-13.1-5.51a37.28 37.28 0 0 1-20.59 30.26 2.34 2.34 0 0 1-1.82.3c-.91-.37-1-1.61-.88-2.59 1.46-12.69 10.87-25 23.29-28M68.79 362a30.58 30.58 0 0 1-44.67.23c14.2-1.55 30.58-2.59 44.67-.23"/></g><g class="B"><path d="M66.66 248.49s0 .15.13.42l.44 1.2 1.71 4.6 2.67 7.29 1.64 4.56 1.75 5.13c2.52 7.19 5.31 15.82 8.33 25.43s6.07 20.25 9.13 31.47 5.69 22 8 31.78 4.12 18.69 5.49 26.19q.53 2.81 1 5.34.47 2.53.81 4.77l1.25 7.66.74 4.85q.14.79.21 1.26a2.72 2.72 0 0 0 .09.43 2.43 2.43 0 0 0 0-.44c0-.31-.09-.73-.16-1.26l-.64-4.87a272.44 272.44 0 0 0-1.16-7.68l-.77-4.78c-.27-1.69-.63-3.48-1-5.35-1.33-7.51-3.19-16.39-5.38-26.23S96 339.68 93 328.44 86.82 306.6 83.83 297s-5.88-18.23-8.44-25.4q-1-2.7-1.81-5.13l-1.69-4.55c-1-2.84-2-5.28-2.75-7.26s-1.39-3.49-1.81-4.56l-.48-1.18a3 3 0 0 0-.19-.43z"/><path d="M144.66 289.11s-.09.07-.25.23l-.68.71-2.52 2.83a98.46 98.46 0 0 0-8.36 11.12 74.82 74.82 0 0 0-8.74 18.71c-2.35 7.44-3.8 15.9-5.25 24.75-2.88 17.7-6.43 33.56-9 45l-3.08 13.58-.81 3.69a21.91 21.91 0 0 0-.2 1 1.05 1.05 0 0 0 0 .33s0-.11.1-.32.15-.56.25-.95l.92-3.67 3.24-13.55c2.66-11.45 6.27-27.3 9.16-45 1.45-8.85 2.88-17.29 5.18-24.7a75.68 75.68 0 0 1 8.59-18.64 108.93 108.93 0 0 1 8.2-11.22c1-1.26 1.88-2.23 2.44-2.88l.64-.75zM64.55 361.4a1.74 1.74 0 0 0 .51.09l1.47.17 1.06.1 1.26.19 3 .51 1.77.36 1.89.47c1.31.3 2.67.78 4.12 1.22a61.35 61.35 0 0 1 9 4 51.22 51.22 0 0 1 8.06 5.6 38.41 38.41 0 0 1 3.09 3 32.77 32.77 0 0 1 2.45 2.82 29.38 29.38 0 0 1 1.81 2.5 17.24 17.24 0 0 1 1.24 2l.75 1.27c.18.29.28.44.3.43a1.56 1.56 0 0 0-.2-.47l-.67-1.33a15.44 15.44 0 0 0-1.17-2 26.41 26.41 0 0 0-1.76-2.56 29.72 29.72 0 0 0-2.42-2.9 40.62 40.62 0 0 0-3.09-3 49.41 49.41 0 0 0-8.1-5.87 58 58 0 0 0-9.1-4l-4.16-1.17-1.91-.45-1.75-.29c-1.13-.23-2.17-.34-3.08-.44l-1.26-.15-1.07-.05-1.48-.06a1.89 1.89 0 0 0-.56.01zm-4.05-71.95a6.82 6.82 0 0 0 1 1l2.95 2.55 9.77 8.21 9.88 8.08 3 2.41a8.11 8.11 0 0 0 1.16.82 7.3 7.3 0 0 0-1-1L84.34 309l-9.77-8.2-9.87-8.08-3-2.41a6.94 6.94 0 0 0-1.2-.86zM57 308.23c0 .15 7.42 2.47 16.65 5.2s16.77 4.83 16.81 4.69-7.41-2.48-16.65-5.21-16.75-4.82-16.81-4.68zm27.54-7.48a5.78 5.78 0 0 0 .77-1.07l2-3c1.66-2.52 4-6 6.83-9.63s5.5-6.85 7.48-9.13l2.36-2.69a5.88 5.88 0 0 0 .83-1 6 6 0 0 0-1 .88c-.61.6-1.46 1.48-2.49 2.59-2.07 2.21-4.82 5.38-7.63 9.05s-5.14 7.17-6.73 9.75c-.79 1.29-1.41 2.35-1.82 3.09a7.08 7.08 0 0 0-.6 1.16zm25.89 10.43a26.69 26.69 0 0 0 1.75 2.88l4.19 6.93 3.82 7.15a25.89 25.89 0 0 0 1.58 3 17.13 17.13 0 0 0-1.23-3.14 85.84 85.84 0 0 0-3.7-7.25l-4.34-6.88a17.69 17.69 0 0 0-2.07-2.69z"/><path d="M119.29 343.67c0 .07 1.46-.62 3.79-1.67l9.25-3.7 9.55-2.88 4-1.05a4 4 0 0 0-1.11.11l-3 .57a82.77 82.77 0 0 0-18.87 6.6l-2.69 1.42a4.31 4.31 0 0 0-.92.6zm-6.97 38.84a2.29 2.29 0 0 0 .46.16l1.34.34 5 1.15a162.32 162.32 0 0 1 16.19 4.27 71.7 71.7 0 0 1 15.11 7.1l4.17 2.9a16.14 16.14 0 0 0 1.5 1.11s-.11-.14-.34-.36l-1-.92a45 45 0 0 0-4.09-3.05 66.09 66.09 0 0 0-15.14-7.29 135.27 135.27 0 0 0-16.29-4.14l-5-1a15.25 15.25 0 0 0-1.91-.27zm-25.22 9.58c.15 0 1-5.21 2-11.68s1.6-11.74 1.45-11.76-1 5.21-2 11.68-1.55 11.74-1.45 11.76zm-26.26-9.53a27.72 27.72 0 0 0 2.37-2.81l5.61-6.85 5.78-6.7a29.16 29.16 0 0 0 2.4-2.82 3.73 3.73 0 0 0-.76.65l-1.89 1.91-5.91 6.61-5.49 7-1.56 2.19a3.65 3.65 0 0 0-.55.82z"/></g><path d="M130.33 406.91v12.97h-3.25l-11.53 36.4H89.98l-11.17-36.04-4.33-.36v-12.97h55.85z" class="C"/><g class="E"><path d="M130.33 406.91v12.97h-3.25l-11.53 36.4H89.98l-11.17-36.04-4.33-.36v-12.97h55.85z"/></g><path d="M76.64 420.24c0 .15 11.3.27 25.22.27l25.22-.27c0-.15-11.29-.27-25.22-.27l-25.22.27zm-18.39-83.45a10 10 0 0 0 1.64.44l4.49 1.09c3.78.93 9 2.35 14.61 4.25s10.64 3.9 14.22 5.44l4.23 1.85a10.75 10.75 0 0 0 1.57.64 9.92 9.92 0 0 0-1.48-.83c-1-.5-2.39-1.19-4.17-2a150.22 150.22 0 0 0-14.19-5.61 147.14 147.14 0 0 0-14.7-4.11c-1.91-.42-3.46-.73-4.54-.91a9.54 9.54 0 0 0-1.68-.25z" class="B"/><path d="M85.13 440.45c0 .15 7.93.27 17.7.27s17.69-.12 17.69-.27-7.92-.27-17.69-.27-17.7.12-17.7.27zm-.99-3.01c0 .15 8.4.27 18.75.27l18.75-.27c0-.15-8.39-.27-18.75-.27s-18.75.12-18.75.27z" class="G"/><path d="M709.46 456.48c0 .15-152.44.27-340.44.27s-340.48-.12-340.48-.27 152.46-.26 340.46-.26l340.46.26z" class="B"/><path d="M616.04 76.13H348.05v165.96h225.6l13.97 32.13L600 242.09h16.04V76.13z" class="G"/><g class="B"><path d="M616 76.12l.2 166v.2H600l.19-.13-12.37 32.13-.19.51-.22-.5-14-32.13.21.14h-204-21.83v-.26-166-.23h.24l268 .23-268 .24.24-.24v166l-.26-.26h21.58 204 .15l.06.14 14 32.14h-.41l12.42-32.1.05-.14H616l-.2.2.2-165.94zm-.1 16.2c0 .2-59.88.37-133.72.37s-133.73-.17-133.73-.37S408.32 92 482.18 92l133.72.32zM362.29 85a2.2 2.2 0 1 1-2.19-2.2 2.2 2.2 0 0 1 2.19 2.2zm7.95 0a2.2 2.2 0 1 1-2.19-2.2 2.2 2.2 0 0 1 2.19 2.2zm7.95 0a2.2 2.2 0 1 1-2.2-2.2 2.2 2.2 0 0 1 2.2 2.2zm-.91 37l-6.36 2.46 6.36 2.45v1.49l-8-3.17v-1.53l8-3.18zm6.62-6.35h1.56l-5.92 16.88H378zm10.1 8.05v1.54l-8 3.17v-1.49l6.38-2.45L386 122v-1.49zm2.06 5.91a1.2 1.2 0 0 1 1.22-1.22 1.18 1.18 0 0 1 1.19 1.22 1.2 1.2 0 0 1-1.19 1.24 1.22 1.22 0 0 1-1.22-1.24z"/><use xlink:href="#F"/><use xlink:href="#F" x="4.07"/></g><path d="M546.5 145.71c0 .2-39.61.36-88.47.36s-88.48-.16-88.48-.36 39.61-.37 88.48-.37l88.47.37z" class="F"/><path d="M575.4 146.23c0 .2-3.8.37-8.5.37s-8.5-.17-8.5-.37 3.81-.37 8.5-.37l8.5.37zm24.85 0c0 .2-4.16.37-9.28.37s-9.29-.17-9.29-.37 4.16-.37 9.29-.37l9.28.37z" class="B"/><path d="M482.23 160.62c0 .2-25.18.36-56.24.36s-56.23-.16-56.23-.36 25.17-.37 56.23-.37l56.24.37zm-.81 55.63c0 .2-25.18.36-56.23.36s-56.24-.16-56.24-.36 25.18-.37 56.24-.37l56.23.37z" class="F"/><path d="M523.09 160.62c0 .2-6.85.36-15.3.36s-15.3-.16-15.3-.36 6.85-.37 15.3-.37 15.3.16 15.3.37zm-.32 55.63c0 .2-6.85.36-15.3.36s-15.3-.16-15.3-.36 6.85-.37 15.3-.37 15.3.17 15.3.37z" class="B"/><path d="M377.14 168.2c0 .2-1.7.37-3.8.37s-3.79-.17-3.79-.37 1.7-.36 3.79-.36 3.8.16 3.8.36z" class="C"/><path d="M403.29 168.36c0 .2-3.69.36-8.24.36s-8.24-.16-8.24-.36 3.69-.37 8.24-.37l8.24.37zm16.71 0c0 .2-3.16.36-7.06.36s-7.06-.16-7.06-.36 3.16-.37 7.06-.37 7.06.17 7.06.37zm21.22 0c0 .2-3.22.36-7.19.36s-7.2-.16-7.2-.36 3.22-.37 7.2-.37 7.19.17 7.19.37zm18.57 0c0 .2-2.93.36-6.54.36s-6.54-.16-6.54-.36 2.93-.37 6.54-.37 6.54.17 6.54.37zm61.47 0c0 .2-12.88.36-28.77.36s-28.78-.16-28.78-.36 12.88-.37 28.78-.37l28.77.37z" class="B"/><path d="M376.09 177.88c0 .2-1.46.37-3.27.37s-3.27-.17-3.27-.37 1.46-.37 3.27-.37 3.27.17 3.27.37zm.26 9.94c0 .2-1.52.37-3.4.37s-3.4-.17-3.4-.37 1.52-.37 3.4-.37 3.4.17 3.4.37zm0 11.25c0 .2-1.52.36-3.4.36s-3.4-.16-3.4-.36 1.52-.37 3.4-.37 3.4.16 3.4.37z" class="C"/><path d="M438.34 198.54c0 .21-11.36.37-25.37.37s-25.37-.16-25.37-.37 11.36-.36 25.37-.36l25.37.36zm-4.44-10.72c0 .2-10.84.37-24.2.37s-24.19-.17-24.19-.37 10.83-.37 24.19-.37 24.2.17 24.2.37zm116.92-10.46c0 .2-36.9.36-82.39.36s-82.4-.16-82.4-.36 36.88-.37 82.4-.37l82.39.37z" class="B"/><path d="M632.5 144v141.04l-21.93 18.29h21.93 2.16 90.6V144H632.5z" class="G"/><g class="B"><path d="M632.5 144h1.62 4.8 18.47l67.87-.1h.2v.2l.06 159.33v.26h-16.34-98.61-.66l.51-.43 21.94-18.29-.09.18.12-102.2.06-28.71v-7.56-1.93-.64.67 2 7.6l.06 28.75.11 102.06v.1l-.08.07-21.92 18.31-.16-.43h98.61 16.08l-.26.26.06-159.33.2.19-67.75-.1L639 144h-4.84z"/><use xlink:href="#G"/><use xlink:href="#G" x="6.8"/><use xlink:href="#G" x="13.6"/></g><path d="M699.76 194.47c0 .17-11.76.3-26.26.3s-26.26-.13-26.26-.3 11.75-.3 26.26-.3l26.26.3zm10.96 12.76c0 .16-14.31.3-32 .3s-32-.14-32-.3 14.31-.3 32-.3l32 .3zm2.6 47.6c0 .17-15.26.3-34.08.3s-34.08-.13-34.08-.3 15.26-.3 34.08-.3l34.08.3zm-61.16-41.11a17.7 17.7 0 0 1-6.49 0 17.7 17.7 0 0 1 6.49 0zm22.39.13c0 .17-3.16.3-7 .3s-7-.13-7-.3a83 83 0 0 1 14.1 0zm14.32 0c0 .17-2.7.3-6 .3s-6.05-.13-6.05-.3a61.05 61.05 0 0 1 12.09 0zm-37.6 8.15a13.22 13.22 0 0 1-5.6 0 13.22 13.22 0 0 1 5.6 0zm.22 8.51a14.26 14.26 0 0 1-5.82 0 13.81 13.81 0 0 1 5.82 0zm0 9.62a14.26 14.26 0 0 1-5.82 0 14.26 14.26 0 0 1 5.82 0zm53.05-.45c0 .17-9.72.3-21.71.3s-21.71-.13-21.71-.3 9.72-.3 21.71-.3l21.71.3zm-3.81-9.17c0 .16-9.27.3-20.7.3s-20.7-.14-20.7-.3 9.26-.31 20.7-.31 20.7.14 20.7.31zm-45 37.03a14.26 14.26 0 0 1-5.82 0 14.26 14.26 0 0 1 5.82 0zm0 9.63a14.26 14.26 0 0 1-5.82 0 13.81 13.81 0 0 1 5.82 0zm53.05-.45c0 .16-9.72.3-21.71.3s-21.71-.14-21.71-.3 9.71-.3 21.71-.3l21.71.3zm-3.78-9.18c0 .17-9.27.3-20.7.3s-20.71-.13-20.71-.3 9.27-.3 20.71-.3l20.7.3zm11.13-45.99c0 .17-12.62.3-28.18.3s-28.18-.13-28.18-.3 12.62-.3 28.18-.3l28.18.3z" class="C"/><path d="M724.39 158.38c0 .16-20.37.3-45.49.3s-45.49-.14-45.49-.3 20.36-.3 45.49-.3l45.49.3z" class="B"/><path d="M666.43 186.78a154.07 154.07 0 0 1-19.22 0c0-.17 4.3-.3 9.61-.3l9.61.3zm-10.88-17.41c0 .17-2 .3-4.53.3s-4.53-.13-4.53-.3a34.35 34.35 0 0 1 9.06 0zm-80.28 205.39l20.14-19.91-35.92-61.51a34.66 34.66 0 0 0-13.78-9.59l-12.65-4.81-31.45-5.77-22.32 8.83a13.35 13.35 0 0 0-8.37 14l5.84 49.16 3.44 64 81.13-14.08-8.16-23.67.27-36.92z" class="C"/><path d="M553.91 369.82c.19 0 .24-12.79.11-28.56l-.57-28.56c-.19 0-.24 12.79-.11 28.56l.57 28.56z" class="B"/><path d="M550.94,379.2l-49-19.73a11.23,11.23,0,0,1-7-9.54l-3.58-47s.42-20-12.06-21l-7.11,2.79C463,289.64,460.73,303,462,313.32c1.77,14.66,2.51,35.41,4.5,48.14,1.63,10.41,7.88,18.64,17.78,22.25l60.38,13.07Z" class="C"/><g class="B"><path d="M492.05 310.1a7.87 7.87 0 0 1 .15 1.07l.32 3.1 1 11.4 1.45 16.91.41 4.89a37.58 37.58 0 0 0 .63 5 8.35 8.35 0 0 0 2.43 4.4 16.45 16.45 0 0 0 4.53 2.81c13.51 5.85 26 10.68 35 14.07l10.74 4 2.92 1.07a5.79 5.79 0 0 1 1 .42 7.52 7.52 0 0 1-1-.29l-3-1c-2.57-.85-6.27-2.13-10.82-3.76-9.09-3.29-21.57-8-35.13-13.91a17.13 17.13 0 0 1-4.7-2.94 8.92 8.92 0 0 1-2.61-4.73 37.2 37.2 0 0 1-.62-5.12q-.21-2.5-.39-4.89l-1.32-16.93-.83-11.41-.19-3.11a8 8 0 0 1 .03-1.05zM464 335.65a1.86 1.86 0 0 1 .1.63c0 .49.1 1.09.16 1.81l.58 6.67 1.1 9.86a94.25 94.25 0 0 0 2.22 11.91 17.56 17.56 0 0 0 2.39 5.67 32.43 32.43 0 0 0 3.66 4.5 31.28 31.28 0 0 0 7.85 5.89 29.56 29.56 0 0 0 8.61 2.82 2.85 2.85 0 0 1-.64 0 13.08 13.08 0 0 1-1.82-.23 24.1 24.1 0 0 1-6.41-2.18 30.88 30.88 0 0 1-8.06-5.87 31.8 31.8 0 0 1-3.76-4.57 18.16 18.16 0 0 1-2.5-5.86 89.82 89.82 0 0 1-2.18-12l-1-9.9-.37-6.69v-1.83a2.58 2.58 0 0 1 .07-.63z"/><path d="M484.93 368.54a7.13 7.13 0 0 1 .89-2.62 16.81 16.81 0 0 1 9.94-8.49 7.15 7.15 0 0 1 2.72-.47c0 .11-1 .31-2.56.91a19.59 19.59 0 0 0-5.56 3.3 19.29 19.29 0 0 0-4.13 5l-1.3 2.37z"/></g><g class="E"><path d="M536.85,373.6c-5.24-3-10.37-5.24-15.85-7.73s-10.85-5.69-14.43-10.52c-6.77-9.12-6-22.28-12.92-31.28L495,342.22c.42,5.55-.43,11,3.14,14.8,3,3.17,8.88,5.61,13,7,8.35,2.75,17.34,6.84,25.68,9.6"/></g><path d="M553.45 316.16l4.24 26.16-4.01-7.41-.23-18.75z" class="E"/><path d="M490.57 300a4.25 4.25 0 0 1-1.13.09l-3.1.08c-2.61.07-6.21.2-10.18.48s-7.55.67-10.15 1l-3.07.36a5.6 5.6 0 0 1-1.13.08 4 4 0 0 1 1.1-.28c.72-.15 1.76-.33 3-.53 2.59-.4 6.18-.84 10.16-1.13s7.6-.36 10.22-.33c1.31 0 2.37.05 3.1.09a5.46 5.46 0 0 1 1.18.09zm1.43 25.06c0 .14-6.42.79-14.35 1.44s-14.39 1.08-14.4.93 6.41-.79 14.35-1.45 14.4-1.07 14.4-.92zm2.33 26.31a5.35 5.35 0 0 1-1 .58c-.67.35-1.65.81-2.9 1.33a59.94 59.94 0 0 1-20.43 4.58h-3.19a4.39 4.39 0 0 1-1.16-.09 5.73 5.73 0 0 1 1.16-.11c.75 0 1.83-.09 3.17-.2a73.76 73.76 0 0 0 10.3-1.46 72.85 72.85 0 0 0 10-3l3-1.17a5 5 0 0 1 1.05-.46zm17.43 13.5a25.72 25.72 0 0 0-4.86 3.9 27.16 27.16 0 0 0-3.39 5.23 5 5 0 0 1 .54-1.79 14.27 14.27 0 0 1 6-6.62 4.63 4.63 0 0 1 1.71-.72zm17.73 17.32a19.05 19.05 0 0 1 5.24-9.56c.12.1-1.42 2-2.86 4.65l-2.38 4.91zm-27.94-96.89a49.44 49.44 0 0 1-6.93 1.52 48.7 48.7 0 0 1-7 1 47.4 47.4 0 0 1 6.93-1.52 48.7 48.7 0 0 1 7-1zm46.93 2.14a90.29 90.29 0 0 1-9.62-.88 87.75 87.75 0 0 1-9.55-1.4 93.55 93.55 0 0 1 9.62.88 90.79 90.79 0 0 1 9.55 1.4zm4 21.82a2.07 2.07 0 0 1-.61 0h-1.76-6.47l-21.33.25-21.32.85-6.46.34-1.75.07a2.09 2.09 0 0 1-.62 0 3.38 3.38 0 0 1 .61-.09l1.75-.18 6.45-.5c5.45-.38 13-.78 21.33-1s15.88-.2 21.35-.1l6.46.18 1.76.08a3.27 3.27 0 0 1 .61.1zm.58 27.65c0 .14-12.85 1.1-28.72 2.15l-28.76 1.63c-.01-.14 12.85-1.11 28.72-2.15l28.76-1.63zm-1.37 24.35a5.76 5.76 0 0 1-1.08.46l-3 1c-2.57.84-6.16 1.89-10.17 2.86s-7.68 1.66-10.35 2.07c-1.34.22-2.42.37-3.17.45a6.08 6.08 0 0 1-1.18.08 5.34 5.34 0 0 1 1.15-.28l3.13-.61a235.66 235.66 0 0 0 10.3-2.22c4-.96 7.59-1.95 10.18-2.7l3.07-.89a4.64 4.64 0 0 1 1.12-.22zm20.57-44.14a89.43 89.43 0 0 1-9.34 2.68 91.06 91.06 0 0 1-9.47 2.18 91.28 91.28 0 0 1 9.34-2.68 88.66 88.66 0 0 1 9.47-2.18zm-9.81-18.69a17.11 17.11 0 0 1-4.13 1 17.61 17.61 0 0 1-4.24.5 18 18 0 0 1 4.14-1 17.55 17.55 0 0 1 4.23-.5z" class="F"/><path d="M492.2 304.23c-.1 0-.26-1.66-1.17-4.17a21.11 21.11 0 0 0-14.86-13.36c-2.6-.64-4.29-.61-4.28-.71a4.38 4.38 0 0 1 1.18-.05 18.31 18.31 0 0 1 3.18.41 20.34 20.34 0 0 1 15.12 13.59 17.14 17.14 0 0 1 .74 3.12 4.3 4.3 0 0 1 .09 1.17zm58.4-13.33a80.32 80.32 0 0 1 1.73 9.14 80.84 80.84 0 0 1 1.21 9.23 84.48 84.48 0 0 1-1.72-9.15 82.68 82.68 0 0 1-1.22-9.22z" class="B"/><path d="M605.24 438.29l39.19 11c2.27.8 1.89 9.11-1.64 9-1.67-.06-28.94 1-32.39.8s-13.84-4.31-13.84-4.31z" class="C"/><g class="B"><path d="M620.94 452.66c.19 0 .44-2 1.66-4s2.78-3.32 2.66-3.47-1.94.92-3.21 3.15-1.27 4.34-1.11 4.32zm-3.94-1.78c.18 0 .56-1.75 1.57-3.72s2.19-3.34 2-3.47a7.18 7.18 0 0 0-2.62 3.19c-.95 2.12-1.1 3.99-.95 4zm-3.68-.98c.19 0 0-1.9.88-4s2.19-3.38 2.06-3.52-1.77 1-2.64 3.3-.45 4.32-.3 4.22z"/><path d="M614 445a6.72 6.72 0 0 0 .41-2.81 13.56 13.56 0 0 0-.39-3.07 11.78 11.78 0 0 0-.56-1.75 2.09 2.09 0 0 0-.6-.92 1 1 0 0 0-1.29.06 1.67 1.67 0 0 0-.51 1.07 8.45 8.45 0 0 0 0 1 7.81 7.81 0 0 0 .23 1.85 11.43 11.43 0 0 0 1.16 2.88 7.78 7.78 0 0 0 1.69 2.27c.09-.06-.54-.94-1.3-2.48a12.81 12.81 0 0 1-1-2.8 8.64 8.64 0 0 1-.18-1.72c0-.58 0-1.3.35-1.58a.36.36 0 0 1 .5 0 1.5 1.5 0 0 1 .41.66 13.07 13.07 0 0 1 .57 1.66 14.94 14.94 0 0 1 .5 2.94L614 445z"/><path d="M614 444.65a5.27 5.27 0 0 0-2.44-.4 11 11 0 0 0-2.67.33 5.82 5.82 0 0 0-1.54.57 1.6 1.6 0 0 0-.85 1.72 1.86 1.86 0 0 0 1.36 1.34 3.45 3.45 0 0 0 1.69 0A6.68 6.68 0 0 0 612 447a6.92 6.92 0 0 0 1.75-1.73 16.4 16.4 0 0 0-2 1.36 6.62 6.62 0 0 1-2.31 1 2.88 2.88 0 0 1-1.4 0 1.29 1.29 0 0 1-.92-.89 1 1 0 0 1 .56-1.06 6 6 0 0 1 1.37-.53 12.79 12.79 0 0 1 2.54-.44c1.41-.11 2.34.04 2.41-.06zm12.73 8.42c.18 0 0-1.63.74-3.4s2-2.81 1.84-2.95-1.63.74-2.42 2.71-.32 3.7-.16 3.64zm-26.29 1.74a7.66 7.66 0 0 0 1.45.68 31.53 31.53 0 0 0 4.2 1.3 59.68 59.68 0 0 0 14.38 1.36c5.65-.06 10.74-.31 14.43-.46l4.36-.23a8.44 8.44 0 0 0 1.6-.17 7.29 7.29 0 0 0-1.61-.08h-4.37l-14.41.28a67.89 67.89 0 0 1-14.29-1.16c-3.6-.71-5.7-1.64-5.74-1.52z"/><path d="M599.32 455.67c0 .08 1.08-.52 2.82-1.28a13.08 13.08 0 0 1 7.13-1.19 11.31 11.31 0 0 1 6.17 3.67 22.57 22.57 0 0 0 2.17 2.22 11.68 11.68 0 0 0-1.85-2.53 15 15 0 0 0-2.49-2.33 9 9 0 0 0-3.9-1.65A12.44 12.44 0 0 0 602 454a9.84 9.84 0 0 0-2.68 1.67z"/></g><path d="M560.65 429.54l-36.94 24.31c-1.92 1.45.28 8.36 3.61 7.16 1.57-.56 31.49-8.89 34.71-10.14s11.88-8.31 11.88-8.31z" class="C"/><g class="B"><path d="M550.06 448c.15 0-.48-2.09-2.39-3.81s-4-2.19-4-2 1.82.86 3.59 2.49 2.63 3.41 2.8 3.32zm3.2-2.89c.15-.05-.54-1.85-2.17-3.5s-3.4-2.4-3.46-2.25 1.47 1.1 3 2.69 2.46 3.15 2.63 3.06zm3.21-2.06c.16 0 0-2-1.56-3.92s-3.48-2.49-3.51-2.33 1.62 1 3 2.73 1.89 3.57 2.07 3.52z"/><path d="M554.36 438.62c.09 0-.4-1-.81-2.67a15.59 15.59 0 0 1-.42-2.95 15 15 0 0 1 0-1.76 1.59 1.59 0 0 1 .19-.75.37.37 0 0 1 .49-.11c.41.16.62.85.81 1.4a8.08 8.08 0 0 1 .35 1.69 12.35 12.35 0 0 1-.09 3l-.48 2.75a7.59 7.59 0 0 0 .92-2.67 11.38 11.38 0 0 0 .23-3.1 8.16 8.16 0 0 0-.34-1.83 7.61 7.61 0 0 0-.35-.93 1.66 1.66 0 0 0-.8-.86 1 1 0 0 0-1.25.33 2.17 2.17 0 0 0-.3 1.06 14.11 14.11 0 0 0 0 1.84 12.86 12.86 0 0 0 .57 3 6.54 6.54 0 0 0 1.28 2.56z"/><path d="M554.28 438.24c.05.09.88-.33 2.32-.68a12.87 12.87 0 0 1 2.55-.35 6 6 0 0 1 1.47.09 1 1 0 0 1 .85.83 1.3 1.3 0 0 1-.6 1.14 3 3 0 0 1-1.33.44 6.61 6.61 0 0 1-2.5-.25 17.91 17.91 0 0 0-2.33-.69 6.53 6.53 0 0 0 2.2 1.11 6.43 6.43 0 0 0 2.69.41 3.56 3.56 0 0 0 1.62-.51 1.89 1.89 0 0 0 .88-1.7 1.59 1.59 0 0 0-1.33-1.38 6.18 6.18 0 0 0-1.64-.07 11 11 0 0 0-2.65.5 5.46 5.46 0 0 0-2.2 1.11zm-22.42 21.47c0 .06.6-.36.88-1.38a5.25 5.25 0 0 0-.67-3.87 13.44 13.44 0 0 0-1.2-1.78 6.38 6.38 0 0 0-1.21-1.3 2.19 2.19 0 0 0-1.14-.48c-.29 0-.45.06-.44.1a3.4 3.4 0 0 1 1.3.72 8.54 8.54 0 0 1 1 1.3 20.12 20.12 0 0 1 1.12 1.74 5.56 5.56 0 0 1 .78 3.48 14.06 14.06 0 0 1-.42 1.47zm12.8-9.56c.17 0 .12-1.8-1.25-3.42s-3.13-2-3.14-1.84 1.44.76 2.65 2.25 1.56 3.04 1.74 3.01z"/><path d="M570.24 443.82a11.36 11.36 0 0 0-1.57 1.08 45.45 45.45 0 0 1-4.39 2.69 58.48 58.48 0 0 1-7 3.11l-8.93 2.88-16.42 4.8-5 1.52a10.26 10.26 0 0 0-1.79.64 11.91 11.91 0 0 0 1.86-.41l5-1.32 16.46-4.62 9-2.95a52.78 52.78 0 0 0 7-3.26 34.3 34.3 0 0 0 4.33-2.89 9.16 9.16 0 0 0 1.45-1.27z"/><path d="M571.56 444.3a9.71 9.71 0 0 0-3-.8 12.46 12.46 0 0 0-7.49.91 9 9 0 0 0-3.21 2.76 15 15 0 0 0-1.67 3 11.68 11.68 0 0 0-1 3 22.07 22.07 0 0 0 1.39-2.77c.85-1.66 2.19-4.09 4.76-5.37a13.2 13.2 0 0 1 7.16-1l3.06.27zm63.21-73.14S645.46 375 645.51 387c.08 23-46.42 48.3-46.42 48.3l-61.89-41-3.88-1.57s83.54-31.42 101.45-21.57z"/></g><g class="F"><path d="M568.55 415a10.06 10.06 0 0 0 1.61-1.09l4.24-3.2c3.54-2.73 8.36-6.62 13.55-11.07s9.75-8.63 13-11.72l3.8-3.7a10.46 10.46 0 0 0 1.32-1.43 12.11 12.11 0 0 0-1.49 1.25l-3.93 3.55-13.11 11.57-13.41 11.21-4.13 3.32a11.92 11.92 0 0 0-1.45 1.31zm48.75-35.26a12.32 12.32 0 0 0-6 .55c-3.23.94-5.4 2.66-5.3 2.78s2.36-1.27 5.48-2.18 5.82-.95 5.82-1.15z"/><path d="M612 376.12a7.59 7.59 0 0 0-3.66 2.76c-1.65 2-2.09 4.15-1.93 4.17s.86-1.86 2.42-3.77 3.23-2.99 3.17-3.16z"/></g><path d="M638.17 448.87c0-.07-.74-.22-1.6.48a5.78 5.78 0 0 0-1.78 3.59 6.93 6.93 0 0 0 .56 4c.44.94.92 1.39 1 1.34s-.25-.58-.56-1.5a8.17 8.17 0 0 1-.35-3.71 6.21 6.21 0 0 1 1.46-3.35c.63-.72 1.28-.72 1.27-.85z" class="B"/><path d="M630.34 338.53L612.74 386a6.84 6.84 0 0 1-6.5 4.46l-96.92-1.28v-7.36l36 1.31 15.26-47.34a3.88 3.88 0 0 1 3.69-2.68l62.52.18a3.87 3.87 0 0 1 3.55 5.24z" class="D"/><path d="M630.34 338.53v-.15a2.57 2.57 0 0 0 .12-.44 3.75 3.75 0 0 0 0-1.79 3.8 3.8 0 0 0-3.46-2.84h-2.15-26.08-18.27-10.27-5.39a4.25 4.25 0 0 0-2.58.57 3.79 3.79 0 0 0-1.61 2.11l-15.22 47.26v.11h-.12l-36-1.3.16-.16v7.36l-.15-.15 60.94.81 26.49.37 6.11.08h3a7 7 0 0 0 2.81-.41 6.67 6.67 0 0 0 3.89-3.74l1.89-5.05L626.07 350l3.17-8.45 1.12-2.93-1.06 3-3.14 8.38-11.53 31.2-1.88 5.07a6.92 6.92 0 0 1-4 3.87 7.36 7.36 0 0 1-2.91.44h-3l-6.1-.08-26.49-.33-60.95-.79h-.15v-7.68h.16l36 1.32-.15.11 15.26-47.25a4 4 0 0 1 1.72-2.25 4.51 4.51 0 0 1 2.72-.6h5.39 10.27l18.27.08 26.08.12h2.16a3.88 3.88 0 0 1 3.51 2.93 3.71 3.71 0 0 1 0 1.8 3.52 3.52 0 0 1-.2.57z" class="B"/><path d="M587.37,356.46a4.36,4.36,0,0,1,4.71.5,3.83,3.83,0,0,1,.92,4.18,4.12,4.12,0,0,1-3.54,2.47,3.71,3.71,0,0,1-3.74-2.47c-.45-1.55,0-3.86,1.65-4.68" fill="#fff"/><path d="M609.52 437.85l-91.19-58.14c-3.28-1.87-12.06-7.27-20.71-4.88s-16.41 10.17-20.29 21.48c-2.21 6.48-3.26 17.53-3.75 25.82a38.3 38.3 0 0 0 9 27.31 24.53 24.53 0 0 0 10.9 7.74c.91.28 1.86.52 2.83.73 16.53 3.59 33.52-3.83 42.81-18l2-3.1 58.09 20.71z" class="B"/><g class="F"><path d="M522.84 382.81s-.08 0-.22-.13l-.61-.42-2.36-1.58a46.84 46.84 0 0 0-9.28-4.71 24.74 24.74 0 0 0-7-1.47 20 20 0 0 0-8 1.31 25.72 25.72 0 0 0-7.72 4.68 35.13 35.13 0 0 0-3.43 3.37 24.71 24.71 0 0 0-2.84 4 41 41 0 0 0-3.76 9l-2.11 8.9a80.91 80.91 0 0 0-2 15.32 55.61 55.61 0 0 0 .79 10.39l.54 2.79.14.73a.79.79 0 0 1 0 .25 1.29 1.29 0 0 1-.08-.24c0-.19-.12-.43-.19-.72l-.64-2.77a51.94 51.94 0 0 1-1-10.43 78.53 78.53 0 0 1 1.93-15.39l2.08-8.94a42.14 42.14 0 0 1 3.81-9.12 25.53 25.53 0 0 1 2.9-4.11 35.13 35.13 0 0 1 3.49-3.42 26.21 26.21 0 0 1 7.88-4.74 20.4 20.4 0 0 1 8.23-1.3 25.39 25.39 0 0 1 7.08 1.56 43.87 43.87 0 0 1 9.27 4.89l2.31 1.67.58.46a.88.88 0 0 1 .21.17z"/><path d="M501.35 422.06a4.66 4.66 0 0 0 .48.22l1.43.56 5.54 2.16 20.6 7.76 31 11.43 38.71 13.68.26.08.12-.23 6.83-13.05 3.48-6.67.14-.26-.25-.15L543 395.25l-20-12.64-5.44-3.4-1.42-.86a5.35 5.35 0 0 0-.49-.28s.15.12.46.33l1.39.92 5.38 3.49 19.93 12.8 66.58 42.51-.11-.41-3.48 6.65-6.82 13.05.37-.16-38.72-13.61-31-11.29-20.67-7.58-5.58-2-1.45-.51z"/></g><path d="M505.87,236.47a44.87,44.87,0,0,1-3.88-9.29,15.13,15.13,0,0,1,.52-9.88c.81-1.79,2.09-3.36,2.73-5.22.87-2.56.51-5.58,2.1-7.77,2.47-3.43,7.77-2.63,11.6-4.42,3-1.4,5.07-4.41,8.2-5.42,2.74-.88,5.73,0,8.37,1.1s5.23,2.57,8.08,2.94a54.84,54.84,0,0,0,6.15,0,8.09,8.09,0,0,1,5.67,2c1.44,1.45,1.74,4.14.18,5.47,3.59-.61,7,3,6.92,6.61s-2.79,6.84-6.1,8.36-7.08,1.61-10.71,1.32c-10.27-.8-20.59-4.7-27.58-12.26" class="C"/><path d="M508.08 223.62l-7 50.85a15.26 15.26 0 0 0 13.79 17.29h0a15.28 15.28 0 0 0 16.46-13.15l1-7.41s13.11.56 15.81-12.12c1.3-6.13 3-19 4.32-30.61a24.15 24.15 0 0 0-19.2-26.47l-1.23-.24c-13.38-1.89-22.45 8.43-23.95 21.86z" fill="#ffbe9d"/><path d="M532.45,271a30.22,30.22,0,0,1-15.64-8s2.09,9.94,15,11.33Z" fill="#eb996e"/><path d="M546.82 239.28a1.85 1.85 0 0 1-2.12 1.48 1.77 1.77 0 0 1-1.54-2 1.85 1.85 0 0 1 2.11-1.49 1.77 1.77 0 0 1 1.55 2.01zm1.72-5.12c-.27.19-1.44-1.1-3.4-1.48s-3.58.3-3.74 0c-.08-.13.23-.51 1-.84a5 5 0 0 1 3-.31 4.86 4.86 0 0 1 2.65 1.48c.51.6.63 1.07.49 1.15zm-19.94 1.97a1.85 1.85 0 0 1-2.12 1.48 1.76 1.76 0 0 1-1.54-2 1.84 1.84 0 0 1 2.11-1.48 1.77 1.77 0 0 1 1.55 2zm.67-5.44c-.28.19-1.45-1.1-3.41-1.49s-3.58.31-3.74 0c-.08-.13.23-.51 1-.84a5 5 0 0 1 3-.31 4.92 4.92 0 0 1 2.65 1.47c.51.62.63 1.08.5 1.17zm4.19 15.91a12.82 12.82 0 0 1 3.29.06c.51.05 1 0 1.15-.28a2.57 2.57 0 0 0 0-1.55l-.71-4.09c-1-5.82-1.56-10.56-1.33-10.6s1.21 4.65 2.18 10.47l.65 4.1a3 3 0 0 1-.13 2 1.3 1.3 0 0 1-1 .57 3.33 3.33 0 0 1-.87-.06 13 13 0 0 1-3.23-.62zm-6.02.2c.32 0-.1 2.17 1.42 4s3.82 2.09 3.77 2.39c0 .14-.58.31-1.54.15a5.42 5.42 0 0 1-3.18-1.88 4.7 4.7 0 0 1-1-3.35c.09-.87.39-1.35.53-1.31z" class="B"/><path d="M531.3 223.13c-.3.49-2.2-.15-4.55-.33s-4.32.07-4.53-.46c-.09-.26.33-.69 1.18-1.06a8 8 0 0 1 6.92.61c.77.5 1.11 1.01.98 1.24zm17.7 5.23c-.44.38-1.69-.35-3.3-.7s-3-.3-3.28-.82c-.09-.26.21-.66.9-1a4.88 4.88 0 0 1 5.29 1.23c.44.61.54 1.11.39 1.29z" class="C"/><path d="M507.24 233.24c-.2-.14-8.22-4.33-9.68 4.42s7.63 8.41 7.68 8.16 2-12.58 2-12.58z" fill="#ffbe9d"/><path d="M503.12 242.06s-.17.08-.44.15a1.55 1.55 0 0 1-1.15-.16c-.87-.5-1.4-2.09-1.18-3.68a5.18 5.18 0 0 1 .79-2.11 1.82 1.82 0 0 1 1.34-1 .79.79 0 0 1 .83.57c.08.27 0 .43 0 .45s.21-.11.2-.48a1 1 0 0 0-.25-.61 1.16 1.16 0 0 0-.81-.36 2.17 2.17 0 0 0-1.82 1.09 5.2 5.2 0 0 0-.93 2.35c-.24 1.77.39 3.57 1.59 4.15a1.69 1.69 0 0 0 1.44 0c.34-.15.42-.34.39-.36z" fill="#eb996e"/><path d="M555,216.66c-1.5,3.23-9.22,4.48-14.88,2.77-5.21-1.57-7.11-4.88-10.42-7.77-2.1-1.83-2.1-1.83-5.53-2.18-2.77-.29-5,2.47-7.09,4.3,1.17,7-1.92,13.84-4.94,20.21a3.51,3.51,0,0,1-1.41,1.81c-1.18.58-2.6-.34-3.31-1.46a11,11,0,0,1-1.23-6.14,36.54,36.54,0,0,1,2.91-14.08,24.74,24.74,0,0,1,9.14-11,23.5,23.5,0,0,1,17.4-2.88,28.88,28.88,0,0,1,15.25,9.15,16.86,16.86,0,0,1,4.11,7.22" class="C"/><g class="B"><path d="M537.24 237.8c.08 0 0-.75.4-2a8.52 8.52 0 0 1 3.1-4.5 8.24 8.24 0 0 1 7.74-1.11 8.1 8.1 0 0 1 3.77 2.85 8.11 8.11 0 0 1 0 9.59 8.1 8.1 0 0 1-3.77 2.85 8.22 8.22 0 0 1-7.74-1.12 8.47 8.47 0 0 1-3.1-4.49c-.35-1.28-.32-2-.4-2a2.15 2.15 0 0 0 0 .55 6.4 6.4 0 0 0 .18 1.55 8.38 8.38 0 0 0 3.06 4.83 8.7 8.7 0 0 0 12.32-1.8 8.7 8.7 0 0 0 0-10.41 8.7 8.7 0 0 0-12.36-1.72 8.36 8.36 0 0 0-3.06 4.82 6.52 6.52 0 0 0-.18 1.56 2 2 0 0 0 .04.55zm-20.75-3.62c.08 0 0-.75.4-2a8.49 8.49 0 0 1 3.1-4.5 8.22 8.22 0 0 1 7.74-1.11 8.08 8.08 0 0 1 3.77 2.84 8.12 8.12 0 0 1 0 9.6 8 8 0 0 1-3.77 2.84 8.22 8.22 0 0 1-7.74-1.11 8.49 8.49 0 0 1-3.1-4.5c-.35-1.27-.32-2-.4-2a2.1 2.1 0 0 0 0 .54 6.52 6.52 0 0 0 .18 1.56 8.38 8.38 0 0 0 3.06 4.83 8.72 8.72 0 0 0 12.37-1.72 8.73 8.73 0 0 0 0-10.42 8.7 8.7 0 0 0-12.36-1.72 8.41 8.41 0 0 0-3.06 4.83 6.52 6.52 0 0 0-.18 1.56 2 2 0 0 0-.01.48z"/><path d="M533.59 234.48c.09.17 1.2-.35 2.49.05s1.94 1.43 2.11 1.33 0-.37-.25-.81a3.09 3.09 0 0 0-3.69-1.11c-.49.2-.71.46-.66.54zm-28.85-2.54c0 .2 2.79.31 6.23.27s6.22-.25 6.22-.45-2.79-.31-6.23-.26-6.22.24-6.22.44z"/></g><path d="M559.13 208.31a2.57 2.57 0 0 1-.14.83 4.08 4.08 0 0 1-1.31 1.88 5.78 5.78 0 0 1-3.15 1.29 15.74 15.74 0 0 1-4.17-.22 73.36 73.36 0 0 1-7.42-1.49l-2.21-.62-.6-.19-.2-.08h.21l.61.15 2.22.55 7.42 1.44a15.88 15.88 0 0 0 4.12.23 5.74 5.74 0 0 0 3.08-1.21 4.12 4.12 0 0 0 1.32-1.79c.18-.47.19-.78.22-.77zm1.94 1.98a8.08 8.08 0 0 1-.75 2.4 10.24 10.24 0 0 1-9.87 5.89 8.09 8.09 0 0 1-2.46-.47 4.33 4.33 0 0 1 .66.13 12.31 12.31 0 0 0 1.81.2 10.4 10.4 0 0 0 9.72-5.82 9.66 9.66 0 0 0 .68-1.69 5 5 0 0 1 .21-.64z" fill="#fff"/><defs ><path id="B" d="M155.51 110.81c0 .15-15.85.27-35.39.27s-35.39-.12-35.39-.27 15.85-.27 35.39-.27l35.39.27z"/><path id="C" d="M156.64 164.07c0 .24-3.4.44-7.59.44s-7.6-.2-7.6-.44 3.4-.44 7.6-.44 7.59.2 7.59.44z"/><path id="D" d="M217.51 163.12c0 .24-8.82.44-19.7.44s-19.71-.2-19.71-.44 8.82-.44 19.71-.44 19.7.2 19.7.44z"/><path id="E" d="M325.09 212.32c0 .24-24.33.44-54.34.44s-54.34-.2-54.34-.44 24.32-.44 54.34-.44l54.34.44z"/><path id="F" d="M400.14 129.61a1.19 1.19 0 0 1 1.22-1.22 1.18 1.18 0 0 1 1.18 1.22 1.2 1.2 0 0 1-1.18 1.24 1.21 1.21 0 0 1-1.22-1.24z"/><path id="G" d="M640.93 151a1.88 1.88 0 1 1-1.88-1.88 1.88 1.88 0 0 1 1.88 1.88z"/></defs></svg>