<svg xmlns="http://www.w3.org/2000/svg" xmlns:xlink="http://www.w3.org/1999/xlink" width="1920" height="850" fill="none" xmlns:v="https://vecta.io/nano"><path fill="#fff" d="M0 0h1920v850H0z"/><path fill="#e9edf5" d="M0 849h1920v1H0z"/><mask id="A" maskUnits="userSpaceOnUse" x="0" y="0" width="1920" height="850" mask-type="alpha"><path fill="#fff" d="M0 0h1920v850H0z"/></mask><g mask="url(#A)"><path fill-rule="evenodd" d="M494.865 0C716.626 144.747 1113.98 482.747 1331 672.535v58.9c-126.41-65.444-279.14-139.743-358.529-187.863-279.143-169.77-490.55-328.761-789.539-476.203C144.533 48.506 102.683 24.638 59.108.385h435.757V0zM0 81.998v533.177C160.497 698.713 308.913 770.317 470.704 845h511.259l-146.69-140.128-36.242-33.877C495.296 384.966 374.924 339.54 38.83 111.64 33.653 107.405 19.415 97.011 0 81.998z" fill="url(#B)"/><path fill-rule="evenodd" d="m1343.99 210.958-106.29-47.96c27.87 19.443 123.14 364.235 154.25 386.27.65-4.86-.97-4.536-4.86-5.833 0-7.129-176.29-262.806-195.08-294.887-38.89-65.783-83.61-193.135-179.53-176.608 16.53 50.876 193.46 494.503 216.79 522.048.98.972 4.54 12.638 4.54 13.934-47.63-57.033-84.58-168.183-147.77-247.576C1035.17 296.508 939.896 93.003 882.215 0h-14.582c19.119 47.636 47.636 119.575 56.061 134.158C1012.81 289.054 1096.41 499.04 1187.47 670.14c37.92 70.967 55.09 118.603 88.47 175.636h128.97c0-.324-.32-.648-.32-.972-48.29-139.991-79.72-251.141-158.46-372.66-.33-.648-11.02-18.147-11.02-18.147 7.45 32.405 221 280.305 257.94 314.979 11.67 11.017 29.17 38.886 43.75 43.099 67.08-65.783-71.29-313.035-98.19-393.076-8.75-25.276-85.55-204.801-94.62-208.041Z" fill="#f7f7f7"/><g opacity=".5"><path d="M674 0h58v846h-58V0Z" fill="#eff0f3"/><path d="M696 0h36v846h-36V0Z" fill="url(#C)"/><path d="M882 20h48v826h-48V20Z" fill="#eaeaee"/><path d="M900 50h30v796h-30V50Z" fill="url(#D)"/><path d="M1042 118h41v728h-41V118Z" fill="#eaeaee"/><path d="M1058 118h25v728h-25V118Z" fill="url(#E)"/><path d="M285.002 0h95.318v846h-95.318V0Z" fill="#eff0f3"/><path d="M321.533 0h58.787v846h-58.787V0Z" fill="url(#F)"/></g><path fill="url(#G)" d="M251 325h854v521H251z"/><path fill-rule="evenodd" d="m0 38.886 1448.68 297.156 4.2-9.073L0 22.359v16.527Z" fill="url(#H)"/></g><defs><linearGradient id="B" x1="423" y1="644" x2="665.5" y2="845" xlink:href="#I"><stop stop-color="#fcfcfc"/><stop offset="1" stop-color="#fcfcfc" stop-opacity="0"/></linearGradient><linearGradient id="C" x1="859.952" y1="-628.94" x2="560.995" y2="1474.04" xlink:href="#I"><stop stop-color="#f2f4f4"/><stop offset="1" stop-color="#fafafa"/></linearGradient><linearGradient id="D" x1="1069.9" y1="-655.573" x2="759.102" y2="1551.36" xlink:href="#I"><stop stop-color="#f2f4f4"/><stop offset="1" stop-color="#fafafa"/></linearGradient><linearGradient id="E" x1="1261.5" y1="-721.247" x2="881.066" y2="1684.81" xlink:href="#I"><stop stop-color="#f2f4f4"/><stop offset="1" stop-color="#fafafa"/></linearGradient><linearGradient id="F" x1="440.343" y1="-204.423" x2="306.829" y2="1055.27" xlink:href="#I"><stop stop-color="#f2f4f4"/><stop offset="1" stop-color="#fafafa"/></linearGradient><linearGradient id="G" x1="678" y1="325" x2="678" y2="846" xlink:href="#I"><stop stop-color="#fff" stop-opacity="0"/><stop offset="1" stop-color="#fff"/></linearGradient><linearGradient id="H" x1="1119.58" y1="-1740.83" x2="752.24" y2="1264.51" xlink:href="#I"><stop stop-color="#f2f4f4"/><stop offset="1" stop-color="#fafafa"/></linearGradient><linearGradient id="I" gradientUnits="userSpaceOnUse"/></defs></svg>