<svg xmlns="http://www.w3.org/2000/svg" width="46" height="395" fill="none" xmlns:v="https://vecta.io/nano"><path fill-rule="evenodd" d="M28.974 326.969H16.012c.324 2.592 0 10.369-.972 12.638-.648 6.481-8.75 16.202-11.99 22.035-7.13 13.286.972 30.137 13.934 32.081 12.638 1.945 30.461-4.861 27.869-23.656-.648-5.833-5.51-11.017-9.074-15.554-5.833-8.425-5.833-18.471-6.805-27.544Z" fill="#cccfd1"/><g fill="#0c2b4b"><path d="M13.093 325.024h18.795v1.944H13.093v-1.944Z"/><path d="M15.043 322.108h15.23v4.86h-15.23v-4.86Z"/></g><g fill-rule="evenodd"><path d="M4.67 366.503l9.074-7.129v.324c.324 1.944.973 3.564 1.62 5.185a43.53 43.53 0 0 1-5.832 7.129l-4.213 5.833-.972-2.593c-.648-2.916-.324-5.833.324-8.749zm1.621 14.258c1.62 2.593 3.565 4.861 6.157 6.481 1.62-4.212 4.213-9.397 6.481-13.61-.972-1.296-1.944-2.916-2.592-4.537-3.24 2.917-6.805 7.454-10.046 11.666zm8.101 7.453c1.62.649 3.24 1.297 5.185 1.621a39.5 39.5 0 0 0 8.75 0 60.098 60.098 0 0 1 3.564-6.157c-.324 0-.324 0-.648-.324-1.62-.648-2.916-1.297-4.537-2.269-.972.648-1.62 1.296-1.944 1.945.324-.324.972-1.297 1.62-1.945l-3.888-2.916c-1.296 1.296-2.269 2.592-2.917 3.24l-.648.648s-2.268 3.241-4.537 6.157zm14.259 1.297c.972-1.621 2.916-3.889 4.536-5.833 2.269.324 5.185.324 8.426.324-3.565 2.916-8.426 4.861-12.962 5.509z" fill="#babeca"/><path d="M8.235 371.04c-.972-.648-.324-4.212.973-8.101l4.212-3.241v.325l.972 3.888c0 .648.325.972.325 1.62l-3.241 4.537v-.324c-.324.324-.324.648-.324.972-.648.648-.972 1.296-1.62 1.945l-.648.648-.325-.972c-.324-.325-.324-.973-.324-1.297zm7.454-1.62l-2.917 2.917 1.62 2.916c.649 1.296.973 2.916 1.297 4.861.972-2.269 2.268-4.537 3.24-6.481-1.62-1.621-2.592-2.917-3.24-4.213zm11.666 20.415c1.62-2.268 3.24-4.212 2.916-5.185-1.62.325-7.13 2.917-8.75 2.917 0-1.296.649-4.861 0-6.157-.323 0-2.916 2.268-4.536 3.24 1.296-1.62 1.944-2.916 2.268-2.916l.648-.648a36.15 36.15 0 0 0 2.917-3.241c1.296.973 2.268 1.945 3.888 2.917a12.333 12.333 0 0 1-1.62 1.944c.648-.324 1.296-.972 1.944-1.944 1.297.972 2.917 1.62 4.537 2.268.324 0 .324 0 .648.324-1.296 2.269-2.916 4.213-3.564 6.157-.648.324-.972.324-1.296.324zm-16.203-14.906c.324 2.592 1.296 5.509 1.62 7.129l-2.916-5.509c.324-.972.648-1.296 1.296-1.62zm17.499 14.582c4.86-.648 9.397-2.592 12.962-5.833-3.24 0-6.157 0-8.426-.324-1.944 2.269-3.564 4.537-4.536 6.157z" fill="#adb1c6"/><path d="M22.817 327.292c.648 0 .973.649.973.973v37.59c0 .648-.649.972-.973.972-.648 0-.972-.648-.972-.972v-37.59c0-.648.324-.973.972-.973Z" fill="#9294a8"/><path d="M24.123 334.422v4.537c-.649.324-1.62.972-2.269 1.296v-4.213c.648-.648 1.296-1.296 2.269-1.62Zm0 8.425v3.241c-.973.648-1.62 1.296-2.269 1.944v-2.592c.648-.973 1.296-1.945 2.269-2.593Zm0 5.833v4.537c-.649.648-1.62.972-2.269 1.62V350.3c.648-.648 1.296-.972 2.269-1.62Zm0 7.777v6.157c-.649.649-1.62.973-2.269 1.297v-5.833c.648-.648 1.296-.972 2.269-1.621Z" fill="#a8acbd"/></g><path d="M22.001 0h2v323h-2V0Z" fill="#517493"/><path d="M22.175 0h.972v323.404h-.972V0Z" fill="#7a7d95"/></svg>