<svg xmlns="http://www.w3.org/2000/svg" width="1123" height="282" fill="none" fill-rule="evenodd" xmlns:v="https://vecta.io/nano"><path d="M0 0c148.675 17.578 200.501-8.602 225.118 86.77 21.379 83.028 80.007 111.827 177.504 140.251 48.586 13.838 119.847 5.984 143.492 23.563 10.689 7.854 13.281 20.196 9.718 31.416L1123 79.29V0H0Z" fill="#75869c"/><g fill="#7c8da4"><path d="M538.57 200.264v-1.296c-.324-1.944-1.944-3.565-4.213-3.889-2.916-.648-6.157.972-6.805 3.565s1.296 4.861 4.213 5.509c2.916.324 5.833-1.296 6.805-3.565-.324-.324 0-.324 0-.324zM361.638 0h-10.694c.324 2.268 2.592 3.889 5.509 4.213 2.916 0 5.185-1.945 5.185-4.213zM538.57 113.418v-9.073h-.648c-2.268.324-2.917 2.268-3.241 4.212.324-1.296 1.621-1.944.973-2.592-1.621-2.268-4.861-3.24-7.454-1.944-2.268.972-3.564 3.888-2.268 6.157 1.62 2.268 4.861 3.24 7.777 1.944.972-.324.324-1.296.648-1.944.324 1.62 1.945 2.916 4.213 3.24zm0-12.314v-9.073c-2.268.324-4.537 1.62-5.185 3.564-.648 2.269 1.296 4.861 4.213 5.509h.972zM309.789 85.226c2.593 1.62 5.833 1.296 7.777-.324 1.621-1.945 1.297-4.861-.648-6.805-2.592-1.62-6.157-1.297-7.777.648-1.944 1.944-1.62 4.86.648 6.48zm83.93 35.969c-1.621 1.621-1.296 4.537.648 6.482 2.592 1.62 5.833 1.296 7.777-.649 2.268-2.268 1.944-4.86-.648-6.805-2.592-1.296-5.833-.972-7.777.972zm-135.454-33.7c0-2.593-2.268-4.862-5.509-4.862-2.592-.324-5.509 1.945-5.509 4.213 0 2.592 2.269 4.86 5.185 4.537 3.241.972 5.833-.972 5.833-3.889zm37.266 6.48c1.296-.648 2.916-.324 3.241-1.62.648-2.593-.973-5.185-3.889-5.833s-6.157.972-6.805 3.24c-.648 2.593 1.296 4.861 4.212 5.51 1.297 0 1.621-.973 2.593-1.297-2.593 0-4.861 1.62-4.861 3.889s2.268 4.861 5.185 4.536c2.916.325 5.509-1.944 5.509-4.212s-2.269-4.213-5.185-4.213zm75.828 41.155c-2.916-.648-5.833.972-6.157 3.24-1.296 2.593.648 5.185 3.565 5.833 2.916.324 5.833-1.296 6.805-3.564.648-2.593-1.296-4.861-4.213-5.509zM320.807 20.415c-1.62-2.268-4.861-2.916-7.129-2.268-2.917 1.296-3.889 3.889-2.917 6.481 1.621 2.268 4.861 3.24 7.778 1.944 2.592-.648 3.24-3.564 2.268-6.157zm-94.299-.324c-.972 2.593.324 5.185 2.916 6.157s6.157-.324 6.805-2.268c1.621-2.268 0-5.185-2.592-6.157-2.916-.972-6.157.324-7.129 2.268zm267.343 18.471c.648-2.268-.648-5.185-3.565-5.833-2.592-.972-4.536.324-5.833 1.945-.972-.648-1.296-1.62-1.944-1.945-3.24 0-5.509 1.945-5.833 4.537 0 2.268 2.268 4.86 5.509 4.86 1.944 0 2.592-1.62 3.565-2.916.648.648 0 1.62.648 1.62 2.916 1.297 5.833 0 7.453-2.268zm8.101 50.552c-1.296 2.269.324 5.185 2.917 6.157s6.157 0 6.805-2.268c1.296-2.268 0-5.185-2.917-6.157-2.592-1.296-6.157 0-6.805 2.268zm-15.878-45.691c-2.917-.972-5.833-.324-7.13 2.268-1.296 2.269.325 5.185 2.917 6.157 3.24.973 6.157 0 7.453-2.592.648-1.944-.648-4.86-3.24-5.833zm-143.88 77.124c-2.916.324-4.86 2.593-4.212 4.861 0 2.593 2.916 4.537 5.833 4.213 3.564-.324 5.509-2.593 4.861-5.185-.973-2.268-3.565-4.213-6.482-3.889zm7.454 34.998c-2.917.324-5.185 2.268-4.213 4.861 0 2.592 2.916 4.537 5.833 4.212 3.565-.324 5.185-2.916 4.861-5.184-.648-2.593-3.565-3.889-6.481-3.889zm-83.93-45.691c-2.916-.648-6.157.648-6.805 3.24l4.861 5.833c2.592.324 5.185-.972 5.833-3.24.324-2.593-.972-5.185-3.889-5.833zm-44.071-74.532c-3.24-.973-5.833.648-6.805 3.24a37.31 37.31 0 0 1 4.537 5.51c2.916.323 5.185-.973 5.833-3.241.972-2.269-.324-5.185-3.565-5.51zM454.965 10.37c-.973-2.269-4.537-3.565-7.454-2.593-2.268.972-4.212 3.565-2.592 5.833 1.296 2.269 4.213 3.889 7.129 2.593 2.593-.324 4.213-3.565 2.917-5.833zM267.987 58.978c-.649-2.269-3.565-3.89-6.481-3.565s-4.537 2.916-3.889 5.509c.972 2.592 3.888 4.213 6.481 3.564 2.268-.324 4.537-2.916 3.889-5.509zm112.446-11.342c.648 2.592 3.24 4.212 6.481 3.564 2.916-.324 4.86-2.916 3.888-5.509-.648-2.592-3.564-3.888-6.481-3.564s-4.536 2.916-3.888 5.509zM377.84 150.36c-2.592-1.62-6.157-1.62-7.453.324-2.268 2.269-1.62 5.185.648 6.805 2.268 1.297 5.833.972 7.453-.972 1.945-1.944 1.621-4.861-.648-6.157zm74.532-78.42c0 2.592 2.917 4.536 5.833 4.536 2.593.324 5.185-2.268 5.185-4.536-.648-2.269-2.916-4.537-5.833-4.537-3.24 0-5.509 1.944-5.185 4.537zM335.389 33.377c0 2.593 2.917 4.537 5.833 4.537 2.917-.324 5.185-2.268 5.185-4.86 0-2.917-2.592-4.537-5.833-4.537-3.24.324-5.185 1.944-5.185 4.86zm12.314.324c0 2.593 2.593 4.537 5.833 4.537s5.185-2.268 5.185-4.86-2.916-4.537-5.833-4.537c-3.24.324-5.509 2.268-5.185 4.86zm17.499-16.526c-1.62-2.269-4.537-2.917-7.453-1.62-2.592 1.296-2.917 4.212-1.296 6.157s4.861 3.24 7.453 1.62c2.916-1.297 2.916-4.213 1.296-6.157zm-71.291 106.937c-1.621-2.268-5.185-2.917-7.454-1.944-2.592 1.296-2.916 4.212-1.296 6.481s4.537 2.916 7.454 1.62c1.944-.972 2.916-4.213 1.296-6.157zM511.35 61.894c-1.621-2.268-5.185-2.593-7.454-1.296-2.592 1.296-3.564 4.212-1.944 6.48s5.185 2.917 7.777 1.297c2.269-1.296 3.241-4.213 1.621-6.481z"/><path d="M356.777 0h-8.75c-.324.324-.324.648-.648.972-.972 2.593.648 5.185 3.241 5.833 3.24.972 6.157 0 6.805-2.592.648-1.297.324-2.917-.648-4.213zm31.433 191.191l7.777 2.916c-.324-.972-.648-1.62-1.62-2.268-1.62-1.62-3.889-1.62-6.157-.648zm150.36-50.552v-7.778c-.648.324-1.296.973-1.944 1.621-1.296 1.944-.648 4.86 1.944 6.157zm0-59.95v-8.101c-1.944-.972-4.213-.648-6.157.324-2.268 1.296-2.592 4.212-.972 6.157 1.296 2.268 4.537 2.916 7.129 1.62zm0-49.58v-5.185c-1.62 1.296-1.62 3.565 0 5.185zm-92.031-21.063c-2.268-1.62-5.185-1.945-7.453 0s-2.268 4.536 0 6.48 5.185 1.945 7.453 0c1.945-1.62 1.945-4.536 0-6.48zm39.211 17.823c-3.241-.325-5.833 1.62-5.833 3.888-.324 2.592 2.268 4.86 4.86 5.185 3.241.324 5.833-1.62 5.833-4.213.648-2.268-1.62-4.537-4.86-4.86zm-45.692 42.45c0-2.592-1.944-4.86-5.185-5.184-2.592-.325-5.184 1.62-5.833 3.888 0 2.593 2.269 4.86 5.509 5.185 2.593.648 5.185-1.62 5.509-3.889zm50.552-26.896c-2.268-2.268-5.184-2.592-8.101-1.296-1.944 1.62-2.592 4.536-.972 6.48 1.62 2.27 4.861 2.917 7.453 1.297 2.917-1.62 3.241-4.537 1.62-6.481zm-88.142 11.99c-1.62-2.268-4.861-2.917-7.453-1.296-2.916 1.296-3.241 4.212-.972 6.157 1.62 2.268 4.861 2.916 7.453 1.296 1.944-.972 2.917-4.213.972-6.157zm60.922 10.046c1.62 1.944 5.185 2.592 7.453 1.296 2.593-1.62 3.241-4.213 1.62-6.157-1.62-2.269-5.508-2.917-7.453-1.297-2.592 1.297-3.24 3.89-1.62 6.157zm59.626-22.684c-1.945 1.62-2.917 4.212-.973 6.48 1.621 1.945 4.861 2.593 7.454 1.297 2.592-1.62 2.916-4.213 1.62-6.48-2.269-1.945-5.509-2.593-8.101-1.297zm-52.173 40.83c.972-.648 2.593-.648 2.593-1.62 0-2.592-1.945-4.86-5.185-5.185-2.593-.324-5.185 1.62-5.833 3.889 0 1.296 1.62 1.944 2.592 2.592-.324.648-1.62 0-1.944.648-.972 2.269 0 4.861 2.592 6.157s5.833 0 7.454-1.944c.324-1.62-.325-2.916-2.269-4.537zm49.256-79.068c-2.268-1.945-5.185-2.269-7.453-.324s-2.593 4.536-.648 6.48c2.268 1.945 5.833 2.27 8.101.325 2.268-1.62 1.944-4.537 0-6.481zm-202.532 4.86c-2.269-1.62-5.833-1.944-8.102-.324-1.944 1.62-1.944 4.537 0 6.482 2.269 1.62 5.509 1.944 7.453.324 2.269-1.62 2.917-4.537.649-6.481zm165.266 49.58c2.268 1.945 1.62 4.861-.324 6.482-2.268 1.944-5.185 1.62-7.453-.325-2.269-1.62-2.269-4.86 0-6.48 1.944-1.62 5.833-1.62 7.777.323zm24.952-8.749c3.241.324 5.833-.972 6.481-3.565.324-2.592-1.62-4.86-4.213-5.508-2.916-.648-5.832 1.296-6.157 3.564-.972 2.593 1.297 5.185 3.889 5.51zM302.336 20.74c1.62-1.296 3.241-2.592 5.509-1.944 2.592.972 4.213 3.565 3.24 5.833-.972 2.592-4.212 3.564-6.805 2.592s-3.564-3.24-3.24-5.508c-.648.323-.648 1.296-1.62 1.296-2.917-.324-5.185-2.593-5.185-5.185.324-2.593 3.24-4.213 5.833-3.889 3.24.324 5.185 2.593 5.185 5.185-.324.648-1.621.648-2.917 1.62zm204.477 46.664c-.648-2.269-3.889-3.565-6.805-2.593-2.917.648-4.213 3.565-3.241 5.833s4.213 3.889 6.805 2.917c3.241-.972 4.213-3.565 3.241-6.157zM432.929 15.88c1.62-2.269.324-5.185-2.268-6.157-2.593-1.297-5.833-.649-7.453 1.296-1.621 2.268-.649 4.86 1.944 6.48 2.916 1.297 5.833.325 7.777-1.62zm12.314 24.952c1.62-2.269.324-4.861-2.268-6.482-2.593-1.296-5.833-.648-7.454 1.297-1.62 2.268-.648 5.185 2.269 6.48 2.592 1.621 5.833.973 7.453-1.295zm-92.679 11.341c3.241 0 5.833-1.944 5.833-4.536s-2.592-4.537-5.833-4.537c-2.592 0-5.185 1.944-5.185 4.537 0 2.268 2.593 4.536 5.185 4.536zM481.213 205.45c.972-1.62.648-3.889-.972-5.185-2.269-1.944-5.833-1.944-8.102 0-1.62 1.296-1.944 3.241-1.296 4.861 3.565 0 6.805 0 10.37.324zM246.923 91.707c-.972-.648-1.944-1.296-3.24-1.296 1.296 2.268 2.592 4.86 4.212 7.129 1.297-1.945.973-4.213-.972-5.833zm77.449-8.102c0-2.592-2.269-4.86-5.185-5.184s-5.509 1.62-5.833 4.212c0 2.593 1.944 4.861 4.861 5.185s5.509-1.944 6.157-4.213zm127.676 24.628c0 2.593 2.269 4.861 5.509 5.185 2.592.324 5.185-1.62 5.833-3.888 0-2.593-2.268-4.861-5.509-5.185-2.592-.324-5.185 1.296-5.833 3.888zm-97.54-22.035c0-2.593-1.944-4.86-4.86-5.185-3.241-.324-5.833 1.62-5.833 4.213-.324 2.592 1.62 4.86 4.861 5.184 2.592 0 5.184-1.944 5.832-4.212zm38.239 84.577c1.62 1.621 5.184 1.945 7.453.324s2.268-4.536.648-6.481c-2.268-1.944-5.833-1.944-8.101-.324-1.945 1.297-1.945 4.213 0 6.481zm-35.97-13.286c-.648 2.593 1.62 4.861 4.213 5.509 3.24.648 5.832-.972 6.481-3.564.324-2.593-1.621-4.861-4.213-5.185-3.565-.648-6.157.972-6.481 3.24zm93.327-22.035c-.972-2.593-3.565-3.565-6.805-2.593-2.593.973-4.213 3.241-3.241 5.833s4.213 3.889 6.805 2.917c3.241-1.296 4.537-3.889 3.241-6.157zm-32.405 39.858c-.973-2.592-4.213-3.888-6.805-2.916-2.593.648-4.213 3.24-3.241 5.833s4.213 3.564 6.805 2.592c2.917-.648 4.537-3.24 3.241-5.509zm-16.527-25.6c-3.241.972-4.213 3.565-3.241 5.833.973 2.592 3.889 3.889 6.806 2.916 2.592-.648 4.212-3.24 3.24-5.832-.972-2.269-4.213-3.565-6.805-2.917zm110.826 25.924c1.62-2.268.648-4.861-1.621-6.157-2.592-1.62-6.481-.648-7.453 1.62-1.62 1.945-.972 4.861 1.621 6.157 2.916 1.297 6.157.649 7.453-1.62zm-72.588-69.347c-2.916-1.296-5.833-.648-7.453 1.62-1.62 1.945-.324 4.861 2.268 6.157s5.833.648 7.453-1.296c1.621-2.268.325-5.185-2.268-6.481z"/><path d="M447.192 0h-2.916c-2.917.648-4.861 3.24-3.889 5.833.972 2.268 4.213 3.889 7.129 2.916 2.593-.648 4.213-3.564 3.241-5.833-.324-1.62-1.945-2.592-3.565-2.916zm-46.339 0h-10.694c-.324 2.268 1.62 4.537 4.537 5.185 2.592.972 5.833-.972 6.481-3.24 0-.649 0-1.297-.324-1.945zM199.94 0h-10.693c.324 1.296 1.296 2.592 2.916 3.24 2.593 1.297 5.833.649 7.129-1.62.324-.648.324-.972.648-1.62zm137.399 168.183c0-.324 0-.648-.325-.972-.972-2.593-3.888-3.889-6.805-3.241-.324 0-.648.324-.972.324l8.102 3.889zM318.544 34.026c-2.269 1.296-2.593 4.212-1.297 6.48 1.945 2.269 5.509 2.593 7.778 1.297 2.592-1.62 3.24-4.537 1.296-6.481-2.269-2.269-5.509-2.593-7.777-1.297zm-25.925 8.425c-2.592-1.296-5.833-.324-7.129 1.944-1.944 2.268-.972 5.185 1.945 6.481 2.592.972 6.156.324 7.453-1.944s.324-5.185-2.269-6.481zm140.963-15.555c-1.944 1.945-1.296 4.861.972 6.481s5.833 1.297 7.453-.648c1.945-1.944 1.621-4.86-.972-6.48-2.268-1.621-6.157-1.297-7.453.647zm-164.943-4.86c-2.916-.649-5.508 1.296-5.832 3.888-.649 2.593 1.296 4.86 4.212 5.185 3.565.324 6.157-1.296 6.157-3.889.324-2.268-1.62-4.86-4.537-5.184zm-3.564 35.645c-2.916-.324-5.509 1.297-5.833 3.889-.648 2.592 1.296 4.86 4.213 5.185 3.564.324 5.833-1.62 6.157-3.889.972-2.916-1.621-4.86-4.537-5.185zm204.801-19.767c-2.593-.972-6.157-.324-7.777 1.944-1.297 2.269 0 4.861 2.268 6.157 2.592.972 5.833.648 7.129-1.62 1.62-2.268 1.296-5.185-1.62-6.48zm30.137-11.018c3.24 0 5.833-1.62 5.509-4.212 0-2.593-1.945-4.861-5.185-4.861-2.917-.324-5.509 1.944-5.509 4.212-.324 2.593 2.268 4.861 5.185 4.861zm-40.507 25.6c.972-1.62 1.944-3.564 4.213-3.24 2.916.324 5.185 2.268 5.185 4.86s-2.593 4.537-5.509 4.213c-2.917 0-4.537-1.944-4.861-4.536-.648.324 0 1.296-.972 1.62-2.917.648-5.833-1.296-6.805-3.565-.648-2.592 1.296-4.86 3.888-5.184 3.241-.649 5.833.972 6.806 3.564.324.972-1.297 1.296-1.945 2.268zM294.24 58.653c-1.945-2.268-5.509-2.592-7.454-1.296-2.592 1.62-3.24 4.861-1.296 6.805s5.509 2.269 7.453.648c2.593-1.62 3.241-4.536 1.297-6.157zm-6.805 65.135c2.916-.648 4.212-3.241 3.24-5.833-.972-2.268-3.565-3.565-6.805-2.917-2.917.649-4.213 3.241-3.241 5.509.973 2.593 3.889 4.213 6.806 3.241zM220.356 15.23c-.972-2.592-4.213-3.888-6.805-3.24-2.917.648-4.213 3.24-3.241 5.833.972 2.268 3.565 3.889 6.805 3.24 2.593-.972 4.213-3.564 3.241-5.833zM518.16 69.671c2.916-.648 4.86-3.564 3.888-5.833s-4.212-3.888-7.129-2.916c-2.592.648-4.213 3.24-3.24 5.833.648 2.268 3.888 3.564 6.481 2.916zm-85.226 65.783c-2.593-1.296-6.157-.324-7.453 1.944s0 4.861 2.592 6.157c2.593.972 6.157.324 7.453-1.944s.324-4.861-2.592-6.157zm69.995-28.193c-.972-2.268-3.888-3.888-6.805-3.564-2.592.648-4.537 2.916-3.889 5.509.973 2.268 3.565 3.888 6.481 3.564s4.537-2.916 4.213-5.509zm29.489-5.509c-.972-2.592-3.889-4.212-6.481-3.888-2.917.648-4.861 3.24-3.889 5.509.648 2.592 3.241 4.212 6.481 3.564 2.593-.324 4.213-2.592 3.889-5.185zm-50.876 73.236c-1.945-1.944-5.509-2.592-7.453-.972-2.593 1.62-2.593 4.537-.973 6.481 1.945 2.268 4.861 2.592 7.778.972 1.944-1.62 2.592-4.537.648-6.481zm-151.333-20.415c1.945 2.268 4.861 2.592 7.454.972 2.268-1.62 2.916-4.213.972-6.481s-5.509-2.268-7.453-.648c-2.593 1.296-2.593 3.888-.973 6.157zm77.125-4.537c.648-2.592-.972-5.185-3.889-5.509-2.916-.648-6.157.972-6.481 3.241-.648 2.592.972 5.185 3.889 5.509 2.916.972 6.157-.648 6.481-3.241zm30.461 16.527c.648-2.593-1.297-5.185-3.889-5.833-2.916-.648-6.157 1.296-6.481 3.564-.648 2.593.648 4.861 3.889 5.509 3.24.972 5.833-.972 6.481-3.24zm13.286 16.202c-.972 2.269 1.296 4.861 4.212 5.509 2.917.324 5.833-.972 6.482-3.564s-1.297-4.861-4.213-5.509c-3.241-.648-6.157.972-6.481 3.564zm31.109 8.426c.972 2.268 3.564 3.888 6.805 2.916 2.592-.648 4.213-3.24 3.24-5.509-.972-2.592-4.212-3.888-6.805-3.24-2.916.648-4.212 3.24-3.24 5.833z"/><path d="M290.022 0h-10.046c.649 1.62 2.593 2.916 4.861 3.24s4.537-1.296 5.185-3.24zm-69.347 0h-10.694c0 .972 0 1.62.648 2.268.972 2.269 3.889 3.889 6.805 2.917 2.593-.648 3.889-2.917 3.241-5.185zM538.57 60.274V51.2h-.324c-2.916.648-4.537 2.917-4.213 5.51.324 1.943 2.269 3.24 4.537 3.564zM189.89 17.499l.648 3.24c.648.324.972.324 1.62.648 0-1.62-.972-2.916-2.268-3.888zm63.19 75.504c2.269 1.296 5.833.648 7.129-1.296 1.621-2.269.972-5.185-1.944-6.481-2.592-1.296-5.833-.972-7.453 1.62-1.296 1.944-.648 4.86 2.268 6.157zm264.751 18.471c2.592 1.296 6.157.648 7.777-1.296 1.296-2.269.324-4.861-1.944-6.481-2.593-1.297-6.157-.648-7.454 1.62-1.944 1.944-.972 5.185 1.621 6.157zm-50.228 8.749c-.648-2.592-3.241-4.536-6.157-3.888-2.593 0-4.861 2.592-4.537 4.86.324 2.593 3.24 4.537 6.157 3.889 2.592.324 4.861-2.268 4.537-4.861zm37.59 1.945c1.296-.973 2.592-.648 2.916-1.945.324-2.592-1.62-5.185-4.861-5.185-2.916-.324-6.157 1.621-6.157 4.213-.324 2.593 1.945 4.861 5.185 4.861 1.296 0 1.62-.972 2.269-1.62-2.269.324-4.537 2.268-4.213 4.536s2.916 4.537 6.157 3.889c2.916 0 5.185-2.592 4.537-4.861-.324-2.592-2.917-4.536-5.833-3.888zM257.941 42.775c2.916.324 5.833-1.62 6.157-4.213s-2.268-4.86-5.185-5.185-5.185 1.62-5.509 3.889c-.648 2.592 1.296 5.185 4.537 5.509zm-25.6-27.545c-2.917-.324-6.157 1.62-6.157 4.213-.324 2.592 1.944 4.86 5.185 4.86 2.916.325 5.833-1.943 5.833-4.212.324-2.592-1.621-4.86-4.861-4.86zm285.166 30.785c-1.945-1.944-5.185-2.592-7.454-1.296-2.592 1.62-3.24 4.537-1.62 6.481 2.269 1.944 5.509 2.593 8.102.972 2.268-.972 2.592-3.888.972-6.157zM357.425 8.75c-1.944 1.297-2.917 4.213-1.296 6.157 1.944 1.945 5.509 2.593 8.101 1.297 1.944-1.62 2.592-4.213.972-6.481-1.944-1.945-5.185-2.593-7.777-.973zm67.079 48.608c-.648 2.593 1.296 5.185 3.888 5.833 2.917.648 5.833-.972 6.481-3.24.973-2.593-.972-5.185-3.564-5.833-2.917-.648-6.157.972-6.805 3.24zm-83.93-49.904c.972 2.269 3.889 3.889 6.805 3.24s4.537-2.916 4.213-5.508c-1.296-2.269-4.213-3.889-7.129-3.24s-4.537 3.24-3.889 5.508zm-43.099 36.294c1.296 2.268 3.889 3.889 6.805 3.24s4.213-3.24 3.241-5.508c-.648-2.593-3.565-4.213-6.805-3.24-2.593.647-4.213 2.916-3.241 5.508zm43.423 11.342c-2.916.648-4.536 2.916-3.564 5.185.648 2.592 3.888 4.212 6.805 3.24s4.212-3.24 3.564-5.509-3.888-3.564-6.805-2.916zm137.722 86.198c-2.916-.324-6.157 1.62-6.157 4.212s2.269 4.861 5.185 4.861c2.917.324 5.509-1.296 5.833-3.888 0-2.269-1.944-4.861-4.861-5.185zm-134.805-8.75c3.24.324 5.833-1.62 6.157-4.212.324-2.269-1.945-4.537-4.861-4.861-3.241-.324-5.509 1.296-5.833 3.888s1.62 5.185 4.537 5.185zM528.2 9.722c-2.916-.324-5.509 1.296-5.509 3.888-.324 2.593 1.621 5.185 4.861 5.185 2.593.324 5.833-1.62 5.833-4.213.324-2.268-1.944-4.536-5.185-4.86zM422.559 72.588c-3.24-.324-5.509 1.296-6.157 4.212-.324 2.593 1.945 4.537 5.185 4.861 2.917.324 5.509-1.62 5.833-3.889 0-2.268-1.944-4.86-4.861-5.184zm49.58 18.147c-.972-2.269-4.212-3.565-7.129-2.593-2.592.648-4.212 3.565-2.916 5.833s4.536 3.565 7.129 2.917c2.268-.973 3.889-3.565 2.916-6.157zM369.415 61.894c2.592.972 5.833.648 7.453-1.62s.324-5.185-2.268-6.157c-2.269-1.62-5.509-.648-7.454 1.62-1.296 2.268-.324 4.86 2.269 6.157zm14.582 62.866c2.593 1.296 5.833.324 7.129-1.62s.648-4.861-1.944-6.157-6.157-.324-7.453 1.62c-.972 1.944-.324 4.861 2.268 6.157zM328.26 20.091c-2.592-1.296-6.157-.324-7.453 1.62-1.296 2.269-.648 4.861 2.268 6.158 2.593 1.296 5.833.323 7.13-1.62 1.944-2.27.648-4.862-1.945-6.158zm19.443 63.19c1.621-2.268.648-5.184-1.944-6.48s-5.833-.325-7.453 1.944c-1.62 1.944-.648 4.86 2.268 6.157 2.593 1.62 5.833.648 7.129-1.62zm35.97-3.564c-1.944-1.945-5.185-2.593-7.453-.648-1.944 1.296-2.268 4.536-.324 6.48s5.509 1.945 7.453.649c2.592-1.944 2.268-4.86.324-6.481zm125.084 72.587c-2.268-2.268-5.833-2.268-7.777-.972-2.268 1.621-2.268 4.537-.324 6.481s5.185 2.269 7.453.648c2.269-1.296 2.593-4.536.648-6.157zm-46.015 50.229c2.268-1.621 2.268-4.213.324-6.157-2.268-2.269-5.185-2.593-7.453-.649-1.945 1.621-2.593 4.537-.324 6.481 1.944 1.621 5.184 1.621 7.453.325z"/><path d="M496.44 0h-10.694v.324c0 2.592 2.269 5.185 5.185 5.185 2.916.324 5.509-1.944 5.509-4.537V0zM313.675 0h-10.046c0 .324-.324.648-.324.972-.324 2.269 1.62 4.86 4.861 5.185 2.916.324 5.509-1.296 6.157-3.565 0-.972 0-1.944-.648-2.592zm-82.31 0h-10.693c0 .972.324 1.944 1.296 2.916 1.944 1.945 5.509 1.945 7.777.649.972-.973 1.62-2.269 1.62-3.565zm-49.256 0h-9.073c-.324.648-.648 1.296-.648 1.944 0 2.593 1.944 5.185 4.861 5.185 2.916.324 5.508-1.944 5.833-4.537 0-.972-.324-1.944-.973-2.592zm-36.293 0h-12.314c-1.621 2.268-.973 4.86 1.296 6.805 2.268 1.62 5.833 1.296 7.777-.648.972-1.296 0-2.916-.648-4.213.972 0 1.296.972 2.268.648.324-.972 1.296-1.62 1.621-2.592zm52.172 20.74c1.62 2.268 4.861 2.916 7.453 1.62s3.565-4.213 1.62-6.157c-1.296-2.269-4.86-2.917-7.453-1.945-2.268 1.62-3.24 4.537-1.62 6.481zM145.816 3.564c2.592-1.297 5.833-.324 7.453 1.296 1.296 1.944 1.296 4.212-.324 5.833l-8.75-.972c-1.944-2.269-.972-4.861 1.621-6.157zm-48.932 1.62c-1.945-.324-3.889 0-5.185 1.296l8.425.324c-.972-.648-1.944-1.296-3.24-1.62zm138.046 4.86c-1.62-1.296-2.917-2.916-2.268-4.86 1.296-2.269 4.212-3.24 7.129-2.269s3.888 3.89 2.592 6.157c-.972 2.269-3.888 2.917-6.481 2.269.324.648 1.62.648 1.296 1.62-.324 2.593-3.24 4.213-6.157 3.889-2.916-.648-4.861-2.917-4.537-5.185.325-2.593 3.241-4.213 6.158-4.213 1.62.324 1.296 1.62 2.268 2.593zm81.985 53.145c-2.268 1.62-2.592 4.86-.324 6.805 1.944 1.945 5.509 1.945 7.777.648 1.945-1.62 2.269-4.86.324-6.805-2.268-1.944-5.509-2.268-7.777-.648zm69.347 120.872c3.241.648 5.509-.973 6.157-3.565.324-2.592-1.62-5.185-4.537-5.185-2.916-.648-5.508 1.62-6.157 3.565-.324 2.916 1.621 5.185 4.537 5.185zm51.524-80.365c2.593-1.297 3.565-4.213 1.621-6.157-1.621-2.269-4.861-2.917-7.453-1.945-2.593 1.297-3.241 4.213-1.945 6.157 1.945 2.269 5.185 2.917 7.777 1.945zm26.897-19.12c2.592-1.296 3.564-3.888 1.62-6.156-1.62-2.269-4.861-2.917-7.453-1.945-2.268 1.62-3.241 4.213-1.62 6.805 1.62 1.945 5.184 2.593 7.453 1.297zM506.81 32.73c2.592-1.296 3.564-4.212 1.944-6.157-1.62-2.592-5.185-2.916-7.453-1.944-2.269 1.296-3.241 4.213-1.621 6.157 1.297 2.592 4.861 3.24 7.13 1.944zm9.073 44.395c2.917-.648 4.537-3.24 3.565-5.508s-3.889-3.89-6.805-3.241-4.537 3.24-3.565 5.509 4.213 3.888 6.805 3.24zM376.541 39.858c-2.593.649-4.537 3.24-3.565 5.51.972 2.916 4.213 3.888 6.805 3.24 2.917-.648 4.537-2.917 3.565-5.51-.972-2.267-3.889-3.888-6.805-3.24zm-71.616 111.798c1.944-.972 2.917-2.916 2.268-5.184-.972-2.269-3.888-3.889-6.805-3.241-1.944.324-3.24 1.944-3.564 3.241 2.592 1.944 5.509 3.564 8.101 5.184zm131.889-70.319c-1.62 2.268-.648 5.509 1.621 6.481 2.592 1.62 6.157 1.296 7.777-.972s.972-5.185-1.944-6.481c-2.269-1.296-5.509-.972-7.454.972zm-112.446 8.101c-2.592-1.62-5.833-1.296-7.453.972s-.972 5.185 1.62 6.482c2.593 1.62 6.157 1.296 7.454-.973 1.62-2.268.972-5.508-1.621-6.48zm28.517-17.823c-2.593-1.62-6.157-.972-7.453.973-1.621 2.268-.648 5.509 1.62 6.48 2.592 1.621 5.509 1.297 7.453-.971 1.62-2.269.648-5.185-1.62-6.481zm22.035-4.212c2.269 1.62 5.833.972 7.454-1.296s.972-4.861-1.945-6.481c-2.592-1.62-5.509-.648-7.453 1.296-1.62 2.268-.648 4.86 1.944 6.48zm-53.468 93.327c1.944-.648 3.24-1.944 3.24-3.889 0-2.592-2.268-4.861-5.185-4.861-2.916-.324-5.508 1.621-5.832 4.213v.648l7.777 3.889zm72.912-115.039c2.916.324 5.184-1.62 5.508-4.212 0-2.269-1.944-4.537-4.86-4.861-3.241-.324-5.509 1.944-5.833 4.213-.324 2.592 1.944 4.86 5.185 4.86z"/><path d="M494.18 0h-10.37c-.324.648-.324 1.296-.324 1.944.324 2.269 2.917 4.537 5.833 4.213s4.861-2.268 4.861-5.509V0zm-21.711 0h-9.398c-.972 1.296-.648 3.24.324 4.86 1.62 2.27 5.185 2.917 7.453 1.297 2.269-1.296 3.241-3.889 1.621-6.157zM328.265 0h-10.693c.324 1.944 2.592 3.565 5.509 3.24 2.592.325 4.536-.972 5.184-3.24zM139.991 0h-9.721l.972.972c2.268 1.944 5.833 1.296 7.777 0l.972-.972zm8.426.648c-3.241 0-5.509 1.944-5.833 4.537.324 2.268 2.916 4.537 5.833 4.537 2.916.324 5.508-1.62 5.508-4.213-.324-2.593-2.592-4.86-5.508-4.86zm31.757 3.24c-2.593-.972-5.509.325-6.481 3.241-.973 2.269.972 5.185 3.888 5.833 2.593.648 6.157-.648 6.805-2.916.972-2.917-1.296-5.185-4.212-6.157zm322.107 61.895c-1.62 1.62-.972 4.86 1.621 6.48 2.268 1.62 5.833.973 7.453-.648 1.944-2.268 1.296-5.184-.972-6.805-2.917-1.62-6.157-.972-8.102.973zm-75.504 125.084c-.972-2.269-4.212-3.565-7.129-2.593-2.592.648-3.889 2.917-3.24 5.509.972 2.268 4.212 3.889 7.129 2.917 2.592-.324 4.212-3.241 3.24-5.833zM360.995 102.4c1.296 2.269 4.212 3.565 7.129 2.917 2.592-.648 4.213-3.565 3.24-5.833-1.296-2.268-3.888-3.565-7.129-2.916-2.592.648-4.212 3.564-3.24 5.832zm89.438 61.894c-.972-2.268-4.213-3.888-6.805-2.592-.972 0-.972-.648-1.944-.648-2.917.972-4.213 3.564-3.241 5.509.972 2.268 4.213 3.888 6.805 3.24l.324-.324c.648.324.972.972 1.297.972 3.24-.972 4.536-3.24 3.564-6.157zm-157.489-51.2c2.916-.324 5.185-2.916 4.536-5.509s-3.24-4.212-6.157-3.888-5.184 2.916-4.536 5.509c.324 2.592 3.24 4.212 6.157 3.888zm27.868-88.79c2.593-.324 4.861-2.917 4.537-5.185-.648-2.592-3.241-4.213-6.157-3.889-2.268 0-3.565 1.945-3.889 4.213-1.944-1.296-4.212-2.592-6.157-.972-2.268 1.296-3.24 4.213-1.296 6.481 1.62 1.944 4.861 2.592 7.453 1.296 1.945-.972 1.621-2.916 1.297-4.86.648 1.296 1.62 2.916 4.212 2.916zm77.773 47.96c2.916-.324 5.185-2.269 4.536-4.861-.324-2.917-3.24-4.861-6.157-4.537s-5.184 2.917-4.536 5.185c.648 2.916 3.24 4.537 6.157 4.213zm-87.17 79.068c2.268 1.297 5.833 1.297 7.777-.648 1.944-1.62 1.62-4.537-.324-6.481-2.592-1.62-5.833-1.296-7.777.648-2.269 1.621-1.621 4.537.324 6.481zm151.008 28.517c0 .972 1.62 1.62 2.592 2.268-1.944.324-4.536.324-4.536 1.945-.648 2.268.972 4.86 3.564 5.508 2.917.973 6.157-.324 6.805-2.916.648-1.62-1.296-1.944-1.944-2.916 2.268-.973 4.213-1.621 4.537-3.889-.324-2.268-2.593-4.537-5.509-4.537s-5.185 1.944-5.509 4.537zm-23.656-7.129c-2.268 1.296-3.24 3.888-2.268 6.481 1.62 2.268 4.861 3.24 7.453 1.944s3.889-4.213 2.268-6.481-4.86-3.24-7.453-1.944zm60.598-121.844c3.24-.324 4.861-2.592 4.537-4.86-.324-2.593-2.917-4.861-5.833-4.537s-5.185 2.916-4.861 5.508c.324 2.269 3.24 4.213 6.157 3.89zm-66.431 71.616c2.917-.324 4.861-2.269 4.537-4.861s-2.916-4.537-5.833-4.213-5.185 2.917-4.861 5.185 3.241 4.213 6.157 3.889zM350.301 5.509c-2.916.324-5.185 2.916-4.861 5.509s3.241 4.212 6.157 3.888c2.593 0 4.861-2.268 4.537-4.86s-3.241-4.213-5.833-4.537zm-15.23 113.094c-1.945 1.62-2.269 4.861 0 6.481 1.944 1.944 5.508 1.944 8.101 0 1.62-1.62 1.944-4.861 0-6.805-2.593-.972-5.833-1.62-8.101.324zm154.248-65.458c-2.916-.649-5.833.648-6.481 3.24-.972 2.593.648 4.86 3.565 5.509 2.916.972 5.509-.324 6.481-2.916.648-2.593-.648-4.861-3.565-5.834zM342.848 99.16c-2.917-.648-6.157.648-6.805 2.916-.972 2.593.972 5.185 3.888 5.833 2.593.972 5.509-.324 6.481-3.24.973-1.944-.648-4.861-3.564-5.51zm-79.393-80.69c-2.916.972-3.889 3.564-2.592 6.157.972 2.268 4.536 3.24 7.129 2.268 2.592-.648 3.888-3.564 2.916-5.833-1.62-2.268-4.536-3.24-7.453-2.592zm22.684 48.284c-1.297-2.269-4.537-3.565-6.805-2.917-2.917.972-4.213 4.213-2.593 6.157.972 2.269 4.213 3.889 6.805 2.917 2.593-1.297 3.889-3.889 2.593-6.157zM526.909 3.24c-2.916.972-3.888 3.564-2.916 5.832 1.296 2.269 4.537 3.241 7.129 2.269 2.917-.972 3.889-3.889 2.917-5.833-1.297-2.268-4.861-3.24-7.13-2.268zm-58.005 41.478c-.972-1.62-3.24-2.268-5.509-1.944.972-1.62 1.296-4.213-.972-5.833-2.592-1.62-6.157-.972-7.453.648-1.944 2.268-.972 4.86 1.296 6.481 1.62.972 3.565 0 5.185-.648-1.62.972-3.565 2.916-2.268 4.537 1.296 2.268 4.536 3.24 7.129 2.268 2.592-.324 3.564-3.24 2.592-5.509z"/><path d="M312.387 155.869c-.972-2.268-3.565-3.565-5.833-3.24l5.833 3.24zM335.395 0h-10.694c-.324.972 0 1.944.648 2.916.972 2.269 4.213 3.241 7.453 2.269 1.945-.648 3.241-3.24 2.593-5.185zM186.331 0h-5.509c.324 0 .648.324.972.324 1.62.324 3.241.324 4.537-.324zM53.469 0h-1.62c.324.324.648.324.972.324S53.145 0 53.469 0zm-2.268 0h-9.398c0 .972.325 1.62.973 2.592.648.649 1.296.973 1.944 1.297 1.296 0 2.592.324 3.889.324.648 0 1.296-.324 1.62-.648 1.296-.973.972-2.269.972-3.565zM8.102 0H.001C2.269.324 4.86.324 7.13.648c.324 0 .648-.324.972-.648zm46.34 1.944c2.592-.648 5.833.972 6.48 2.917-3.24-.324-6.48-.324-10.045-.648.972-.972 1.944-1.62 3.565-2.269zm33.053 1.297c-2.593-.649-5.509.648-6.481 2.592 3.564.324 6.805.324 10.046.648-.649-1.296-1.945-2.592-3.565-3.24zm264.75 39.21c-2.592 1.296-3.564 4.212-2.268 6.48s4.861 3.241 7.453 2.27 3.565-3.565 2.269-6.482c-1.297-2.268-4.861-3.564-7.454-2.268zm4.861-31.757c-2.592.972-3.564 3.564-2.268 5.833s4.213 3.24 7.129 1.944c2.592-.972 3.889-3.565 2.592-5.833-1.62-1.944-4.86-2.916-7.453-1.944zM215.82 31.109c-2.593-.648-5.185 0-6.806 1.944 2.269 1.945 4.537 4.537 6.806 6.805 1.296-.324 2.268-1.296 2.916-2.268 1.296-2.268 0-5.185-2.916-6.481zm11.665-23.332c-2.916-.972-6.157 0-7.453 1.945-.972 2.592.324 5.184 2.917 6.157 2.592 1.296 5.833.324 7.129-2.269 1.296-1.944 0-4.86-2.593-5.833zM340.58 149.388c2.916-.648 4.536-2.916 3.564-5.509s-3.888-3.889-6.805-3.24c-2.916.972-4.537 3.24-3.565 6.157.973 1.62 4.213 3.24 6.806 2.592zm57.033-40.507c2.916-.648 4.861-3.564 3.564-5.508-.972-2.593-3.888-4.213-6.805-3.565-2.592.648-4.537 3.565-3.564 5.509.648 2.592 3.888 3.889 6.805 3.564zm46.339-67.402c-2.268-1.62-5.833-1.62-7.777 0s-1.944 4.536.324 6.805c2.268 1.62 5.509 1.62 7.453 0 2.593-1.62 2.269-5.185 0-6.805zm-45.043 13.934c-2.268 1.944-1.944 4.537 0 6.157 2.268 2.268 5.833 1.62 7.777 0 2.269-1.62 1.62-4.537-.324-6.157-1.944-1.944-5.509-1.944-7.453 0zm64.81-37.914c-1.944 1.62-1.944 5.185.324 6.805s5.509 1.62 7.454 0c2.268-1.944 1.62-4.86-.324-6.805-1.945-1.62-5.185-1.62-7.454 0zM401.501 30.46c2.593 1.62 5.833 1.62 7.778 0 1.944-1.944 1.944-5.185-.324-6.805-2.593-1.62-5.833-1.62-7.778 0-1.944 1.944-1.944 4.86.324 6.805zm-24.628 20.091c2.593-.972 3.889-3.565 2.593-5.833s-4.537-3.888-7.129-2.592c-2.593.972-4.213 3.888-2.593 6.48 1.296 2.27 4.537 3.241 7.129 1.945zm56.385 6.157c-2.592.972-5.832.324-7.453-2.268-1.296-2.593 0-5.185 2.593-6.481 2.592-.973 5.833 0 7.129 2.592 1.62 2.593.324 5.185-2.269 6.157zM307.85 29.813c2.917 1.296 6.157.324 7.129-1.62 1.621-2.269.649-5.185-2.268-6.482-2.592-1.296-5.833-.324-7.129 1.62-1.296 2.593-.324 5.186 2.268 6.482zm84.902 123.464c3.241 0 5.509-2.269 5.185-4.537s-2.593-4.537-5.509-4.537c-3.241 0-5.509 2.269-5.185 4.537s2.593 4.537 5.509 4.537zM268.316 87.17c-2.916 0-5.509 2.268-5.185 4.537 0 2.916 2.917 4.537 5.509 4.537 3.241 0 5.509-1.62 5.185-4.537 0-2.269-2.593-4.537-5.509-4.537zm46.339 52.82c-2.268 1.945-2.268 5.185-.648 6.482 2.269 1.944 5.509 2.592 7.778.648 2.268-1.621 2.592-4.861.324-6.481-1.945-1.621-5.185-2.269-7.454-.649zm-54.764-25.924c1.944.972 4.536.648 6.157-.648 2.268-1.944 2.268-4.537.324-6.805-1.945-1.944-5.185-1.944-7.778-.324-1.296.972-1.944 2.592-1.62 3.889.972 1.62 1.944 2.916 2.917 3.888zM390.16 79.069c2.916.972 5.832-.648 6.805-3.24.648-1.945-.648-4.862-3.565-5.834s-6.157.648-6.805 2.593c-.972 2.916.648 5.509 3.565 6.48zM283.87 96.567c2.917.973 5.509-.323 6.482-2.916.648-1.944-.649-4.86-3.241-5.509-3.241-.972-6.157.648-6.805 2.593-.972 2.592.648 4.86 3.564 5.832z"/><path d="M465.011 0h-11.018v.648c.324 2.593 2.916 4.213 6.157 4.213 2.916-.324 5.185-2.269 4.861-4.861zM312.706 0h-2.268c-.972.324-2.268.648-2.917 1.62-1.944 1.945-1.62 4.861.649 6.157 2.268 2.269 5.832 1.945 7.777 0 1.62-1.944 1.296-5.185-.648-6.805-.973-.324-1.945-.972-2.593-.972zm206.097 107.585l2.593-8.425h-.324c-2.593-1.296-5.833 0-7.129 1.944-.973 2.269 0 5.509 2.916 6.481h1.944zm-290.35-84.253c2.916-.972 3.888-3.889 2.916-6.157-1.296-2.269-4.537-3.24-7.129-2.593-2.916.973-3.889 3.889-2.592 6.157.972 2.593 4.212 3.889 6.805 2.593zm2.916 15.23c0-1.296.972-2.268-.324-3.24-2.268-1.62-5.833-1.945-7.777 0s-1.944 5.184.324 6.805 5.833 1.62 7.777-.324c.648-.972-.324-1.62-.324-2.593-1.296 1.62-.648 4.537 1.944 5.51 2.593 1.295 5.833.647 7.13-1.621 1.62-1.944.648-5.185-1.945-6.157-2.592-1.296-5.509-.648-6.805 1.62zm186.978 46.016c-1.62 1.944-.648 5.184 1.945 6.157 2.592 1.296 5.832.648 7.453-1.62 1.62-1.945.648-5.185-1.945-6.158-2.916-1.296-5.833-.648-7.453 1.62zM279.329 16.203c-.972 2.268.648 4.86 3.24 5.832 2.593 1.297 5.833 0 6.806-2.268.972-2.916-.325-5.509-3.241-6.157-2.592-.648-5.833.324-6.805 2.593zm39.858 11.666c-.972 2.268.324 4.86 3.241 5.832 2.592 1.297 5.833 0 6.805-2.268.972-2.916-.648-5.509-3.241-6.157-2.592-1.296-5.833.324-6.805 2.593zm-84.577 40.83c-.324.324-.324.648-.648.972.324.972.972 1.944 1.296 3.24.648 1.297.972 2.593 1.62 3.565 1.944.648 4.537 0 5.833-1.296 1.944-1.944 1.62-4.86-.324-6.481-2.268-1.62-5.833-1.944-7.777 0zm91.382-64.486c-2.916.972-4.212 3.888-2.916 5.833 1.296 2.592 4.861 3.888 7.453 2.916s3.565-3.889 2.268-6.157c-.972-2.592-4.212-3.889-6.805-2.592zM26.244 2.593c-1.296-.973-3.24-.973-4.86-.325 1.62 0 3.24 0 4.86.324zm294.888 133.509c2.916 1.296 6.157 0 7.453-2.269s.324-4.86-2.593-6.156-5.833 0-7.453 2.268c-1.296 2.268.324 4.861 2.593 6.157zm37.914-26.572c-2.593-1.297-5.833-.648-7.454 1.944-.972 2.268 0 4.861 2.917 6.157s5.833 0 7.129-1.944c1.296-2.269.324-5.509-2.592-6.157zm40.506-83.606c-.324-2.592-2.916-4.537-6.157-4.212-2.916.323-4.861 2.268-4.537 4.86s2.917 4.213 5.833 4.213c3.241-.324 5.185-2.268 4.861-4.86zM262.154 54.441c-3.24.324-5.509 2.592-5.185 4.86.324 2.593 2.917 4.213 6.157 4.213 2.917-.324 5.185-1.944 4.861-4.86-.324-2.269-3.241-4.213-5.833-4.213zm21.712 62.542c-.324-2.593-2.917-4.213-5.833-4.213-3.241.324-5.185 2.268-4.861 4.861.324 2.268 2.916 4.537 6.157 4.213 2.592 0 4.537-2.593 4.537-4.861zm246.279-97.216c3.241.324 5.509-1.62 5.509-4.537s-2.268-4.86-5.185-4.536c-2.916-.324-5.185 2.268-5.509 4.536-.324 2.593 2.269 4.537 5.185 4.537zm-26.248 86.846c2.916-.324 5.185-2.268 5.185-4.861 0-2.268-2.593-4.536-5.509-4.536-2.917.324-5.185 1.944-5.185 4.86 0 2.269 2.268 4.537 5.509 4.537zM475.38 46.015c1.945-1.944 1.945-5.184-.324-6.805s-5.833-1.62-7.777.324c-1.944 1.297-1.62 4.537.324 6.157 2.593 1.945 6.157 1.62 7.777.324zm35.646-9.073c2.917-.324 5.185-2.268 4.861-4.86s-3.241-4.213-6.157-4.213c-2.917.323-4.861 2.268-4.861 4.86.972 2.917 3.241 4.537 6.157 4.213zM964.673 0h-10.694c.324 2.268 2.593 3.889 5.509 4.213 2.917 0 4.861-1.945 5.185-4.213zm-23.98 125.084l9.398-2.916c-1.296-1.297-2.917-1.945-4.861-1.621-2.917 0-4.861 2.269-4.537 4.537zm-27.868-39.858c2.592 1.62 5.833 1.296 7.777-.324 1.62-1.945 1.296-4.861-.648-6.805-2.593-1.62-6.157-1.297-7.777.648-2.269 1.944-1.621 4.86.648 6.48zM861.3 87.494c0-2.592-2.268-4.86-5.508-4.86-2.593-.325-5.509 1.944-5.509 4.212 0 2.592 2.268 4.86 5.185 4.537 2.916.972 5.832-.972 5.832-3.889zm36.942 6.481c1.297-.648 2.917-.324 3.241-1.62.648-2.593-.972-5.185-3.889-5.833s-6.157.972-6.805 3.24c-.648 2.593 1.296 4.861 4.213 5.51 1.296 0 1.62-.973 2.592-1.297-2.268 0-4.86 1.62-4.86 3.889s2.268 4.861 5.184 4.536c2.917.325 5.509-1.944 5.509-4.212s-1.944-4.213-5.185-4.213zm25.6-73.56c-1.62-1.944-4.86-2.916-7.453-1.944-2.916 1.296-3.888 3.889-2.916 6.481 1.62 2.268 4.861 3.24 7.777 1.944 2.592-.972 3.565-3.888 2.592-6.48zm-94.623-.324c-.972 2.593.648 5.185 3.241 6.157s6.157-.324 6.805-2.268c1.62-2.268 0-5.185-2.593-6.157-2.916-.972-6.481.324-7.453 2.268zm267.341 18.471c.65-2.268-.65-5.185-3.56-5.833-2.59-.972-4.54.324-5.84 1.945-.97-.648-1.29-1.62-1.94-1.945-3.24 0-5.51 1.945-5.83 4.537 0 2.268 2.27 4.86 5.51 4.86 1.94 0 2.59-1.62 3.56-2.916.65.648 0 1.62.65 1.62 3.24 1.297 6.16 0 7.45-2.268zm-7.45 4.861c-2.92-.972-5.83-.324-7.13 2.268-1.3 2.269.32 5.185 2.92 6.157 3.24.973 6.15 0 7.45-2.592.65-1.944-.65-4.86-3.24-5.833zm-220.356 66.431c-2.917-.648-6.157.972-6.805 3.24-.649 2.593 1.296 4.861 4.212 5.509s5.833-.648 6.481-3.24c.324-2.269-.972-4.861-3.888-5.509zm-44.071-74.532c-3.241-.973-5.833.648-6.806 3.24-.648 2.593.973 4.861 4.213 5.51 2.917.647 5.833-.973 6.481-2.917.324-2.593-.972-5.51-3.888-5.833zM1057.68 10.37c-.98-2.269-4.54-3.565-7.46-2.593-2.27.972-4.21 3.565-2.59 5.833 1.62 2.593 4.54 3.889 7.45 2.917 2.6-.649 3.89-3.889 2.6-6.157zM870.698 58.978c-.648-2.269-3.565-3.89-6.481-3.565s-4.537 2.916-3.889 5.509c.972 2.592 3.889 4.213 6.481 3.564 2.593-.324 4.537-2.916 3.889-5.509zm112.77-11.342c.648 2.592 3.241 4.212 6.481 3.564 2.917-.324 4.861-2.916 3.889-5.509-.648-2.592-3.565-3.888-6.481-3.564s-4.861 2.916-3.889 5.509zm71.612 24.304c0 2.592 2.92 4.536 5.84 4.536 2.59.324 5.18-2.268 5.18-4.536-.65-2.269-2.92-4.537-5.83-4.537-2.92 0-5.19 1.944-5.19 4.537zM938.101 33.377c0 2.593 2.916 4.537 5.833 4.537 2.916-.324 5.185-2.268 5.185-4.86 0-2.917-2.593-4.537-5.833-4.537-2.917.324-5.185 1.944-5.185 4.86zm12.314.324c0 2.593 2.592 4.537 5.833 4.537s5.185-2.268 5.185-4.86-2.917-4.537-5.833-4.537c-2.917.324-5.185 2.268-5.185 4.86zm17.823-16.526c-1.621-2.269-4.537-2.917-7.454-1.62-2.592 1.296-2.916 4.212-1.296 6.157s4.861 3.24 7.453 1.62c2.593-1.297 2.917-4.213 1.297-6.157zm-71.292 106.937c-1.62-2.268-5.185-2.917-7.453-1.944-2.592 1.296-2.916 4.212-1.296 6.481s4.537 2.916 7.453 1.62c1.944-.972 2.592-4.213 1.296-6.157zm217.444-62.218c-1.63-2.268-5.19-2.593-7.46-1.296-2.59 1.296-3.56 4.212-1.94 6.48s5.18 2.917 7.77 1.297c2.27-1.296 3.25-4.213 1.63-6.481z"/><path d="M959.494 0h-8.75c-.324.324-.324.648-.648.972-.972 2.593.648 5.185 3.241 5.833 3.24.972 6.157 0 6.805-2.592.648-1.297.648-2.917-.648-4.213zm163.646 11.018V4.537h-.32c-2.27-1.945-5.19-2.269-7.46-.324s-2.59 4.536-.65 6.48c2.6 1.945 6.16 2.27 8.43.325zM872.972 146.147l9.397-2.916c0-.648 0-.972-.324-1.62-.972-2.269-4.213-3.889-6.805-2.917-3.24.972-4.213 3.565-3.24 5.833.324.648.648.972.972 1.62zm192.808-59.625l8.43-2.593-.33-.324c.98-.648 2.6-.648 2.6-1.62 0-2.592-1.95-4.86-5.19-5.185-2.59-.324-5.18 1.62-5.83 3.889 0 1.296 1.62 1.944 2.59 2.592-.32.648-1.62 0-1.94.648-.33.973-.65 1.62-.33 2.593zM809.782 96.567l.324 1.297c.324.972.972 1.62 2.268 1.944 2.916 1.62 6.481.972 7.453-1.296 1.62-2.269.972-4.861-1.62-6.157s-6.157-.648-7.453 1.296c-.648.972-.972 2.268-.972 2.916zm239.478-86.521c-2.27-1.62-5.19-1.945-7.46 0s-2.27 4.536 0 6.48 5.19 1.945 7.46 0c2.26-1.62 2.26-4.536 0-6.48zm39.53 17.823c-3.24-.325-5.83 1.62-5.83 3.888-.33 2.592 2.27 4.86 4.86 5.185 3.24.324 5.83-1.62 5.83-4.213.33-2.268-1.62-4.537-4.86-4.86zm-45.69 42.45c0-2.592-1.95-4.86-5.19-5.184-2.59-.325-5.18 1.62-5.83 3.888 0 2.593 2.27 4.86 5.51 5.185 2.27.648 4.86-1.62 5.51-3.889zm50.55-26.896c-2.27-2.268-5.18-2.592-8.1-1.296-1.94 1.62-2.59 4.536-.97 6.48 1.62 2.27 4.86 2.917 7.45 1.297s3.24-4.537 1.62-6.481zm-88.47 11.99c-1.62-2.268-4.86-2.917-7.448-1.296-2.917 1.296-3.241 4.212-.972 6.157 1.62 2.268 4.86 2.916 7.45 1.296 2.27-.972 3.24-4.213.97-6.157zm61.25 10.046c1.62 1.944 5.19 2.592 7.45 1.296 2.6-1.62 3.24-4.213 1.62-6.157-1.62-2.269-5.5-2.917-7.45-1.297-2.92 1.297-3.24 3.89-1.62 6.157zM920.607 9.398c-2.268-1.62-5.833-1.945-8.101-.325-1.944 1.62-1.944 4.537 0 6.482 2.268 1.62 5.509 1.944 7.453.324 2.269-1.62 2.917-4.537.648-6.481zm165.263 49.58c2.27 1.944 1.62 4.86-.32 6.48-2.27 1.945-5.18 1.62-7.45-.323-2.27-1.62-2.27-4.861 0-6.482 1.94-1.62 5.83-1.62 7.77.325zm24.63-8.75c3.24.324 5.83-.972 6.48-3.565.33-2.592-1.62-4.86-4.21-5.508-2.92-.648-5.83 1.296-6.16 3.564-.64 2.593 1.3 5.185 3.89 5.51zM905.377 20.74c1.62-1.296 3.24-2.592 5.509-1.944 2.592.972 4.212 3.565 3.24 5.833-.972 2.592-4.212 3.564-6.805 2.592s-3.564-3.24-3.24-5.508c-.648.323-.648 1.296-1.621 1.296-2.916-.324-5.184-2.593-5.184-5.185.324-2.593 3.24-4.213 5.833-3.889 3.24.324 5.184 2.593 5.184 5.185-.324.648-1.944.648-2.916 1.62zm204.473 46.664c-.64-2.269-3.88-3.565-6.8-2.593-2.92.648-4.21 3.565-3.24 5.833s4.21 3.889 6.8 2.917c3.24-.972 4.22-3.565 3.24-6.157zm-74.2-51.524c1.62-2.269.32-5.185-2.27-6.157-2.59-1.297-5.84-.649-7.46 1.296-1.62 2.268-.64 4.86 1.95 6.48 3.24 1.297 6.16.325 7.78-1.62zm12.31 24.952c1.62-2.269.32-4.861-2.27-6.482-2.59-1.296-5.83-.648-7.45 1.297-1.62 2.268-.65 5.185 2.27 6.48 2.91 1.621 6.15.973 7.45-1.295zm-92.355 11.341c3.24 0 5.833-1.944 5.833-4.536s-2.593-4.537-5.833-4.537c-2.592 0-5.185 1.944-5.185 4.537-.324 2.268 2.269 4.536 5.185 4.536zM849.964 91.707c-2.268-1.945-5.833-1.945-8.101 0-1.945 1.944-1.945 4.537 0 6.48 2.268 1.621 5.833 1.945 8.101 0 1.944-1.62 1.944-4.536 0-6.48zm77.124-8.102c0-2.592-2.268-4.86-5.184-5.184s-5.509 1.62-5.833 4.212c0 2.593 1.944 4.861 4.86 5.185s5.833-1.944 6.157-4.213zm30.137 2.593c0-2.593-1.944-4.86-4.861-5.185-3.24-.324-5.832 1.62-5.832 4.213-.325 2.592 1.62 4.86 4.86 5.184 2.917 0 5.509-1.944 5.833-4.212zm-114.066 36.294c1.62-2.269.648-5.185-1.62-6.481-2.593-1.297-6.481-.648-7.454 1.62-1.62 2.268-.972 4.861 1.621 6.157 2.916 1.62 6.157.648 7.453-1.296zm6.805 18.471c-1.62 1.944-.648 4.86 1.944 6.157 2.917 1.296 5.833.648 7.454-1.621s.324-4.86-2.269-6.157-5.833-.648-7.129 1.621z"/><path d="M1049.9 0h-2.91c-2.92.648-4.86 3.24-3.89 5.833.97 2.268 4.21 3.889 7.45 2.916 2.59-.648 4.21-3.564 3.24-5.833-.65-1.62-1.94-2.592-3.89-2.916zm-46.01 0h-10.695c-.324 2.268 1.62 4.537 4.537 5.185 2.588.972 5.828-.972 6.478-3.24 0-.649 0-1.297-.32-1.945zM802.652 0h-10.693c.324 1.296 1.296 2.592 2.916 3.24 2.593 1.297 5.833.649 7.129-1.62.324-.648.648-.972.648-1.62zm320.488 68.699v-7.13c-1.62-.971-3.56-1.295-5.51-.971-2.59.648-4.21 3.24-3.24 5.833.65 1.944 2.92 3.24 5.19 3.24l3.56-.972zm-301.044 83.605l1.296 6.482c.648.324.972.648 1.944.648 2.592.972 5.833-.648 6.481-2.917.648-2.592-.972-4.861-3.889-5.833-2.268-.648-4.536.324-5.832 1.62zm99.159-118.279c-2.268 1.297-2.592 4.213-1.296 6.482 1.945 2.268 5.509 2.592 7.777 1.296 2.593-1.62 3.241-4.537 1.297-6.481-1.945-2.269-5.185-2.593-7.778-1.297zm-25.924 8.426c-2.592-1.296-5.833-.324-7.129 1.944-1.944 2.268-.972 5.185 1.944 6.481 2.917.972 6.157 0 7.778-1.944 1.296-2.269.324-5.185-2.593-6.481zm140.959-15.555c-1.94 1.945-1.29 4.861.98 6.481 2.26 1.62 5.83 1.297 7.45-.648 1.94-1.944 1.62-4.86-.97-6.48-1.95-1.621-5.84-1.297-7.46.647zm-164.939-4.86c-2.916-.649-5.508 1.296-5.833 3.888-.648 2.593 1.297 4.86 4.213 5.185 3.565.324 6.157-1.296 6.157-3.889.648-2.268-1.62-4.86-4.537-5.184zm-3.24 35.645c-2.917-.324-5.509 1.297-5.833 3.889-.648 2.592 1.296 4.86 4.213 5.185 3.564.324 5.833-1.62 6.157-3.889.972-2.916-1.621-4.86-4.537-5.185zm204.799-19.767c-2.59-.972-6.16-.324-7.78 1.944-1.29 2.269 0 4.861 2.27 6.157 2.6.972 5.84.648 7.13-1.62 1.62-2.268.97-5.185-1.62-6.48zm30.14-11.018c3.24 0 5.83-1.62 5.51-4.212 0-2.593-1.95-4.861-5.19-4.861-2.91-.324-5.51 1.62-5.83 4.212 0 2.593 2.59 4.861 5.51 4.861zm-40.51 25.6c.97-1.62 1.95-3.564 4.21-3.24 2.92.324 5.19 2.268 5.19 4.86s-2.59 4.537-5.51 4.213c-2.92 0-4.54-1.944-4.86-4.536-.65.324 0 1.296-.97 1.62-2.92.648-5.84-1.296-6.81-3.565-.65-2.592 1.3-4.86 3.89-5.184 3.24-.649 5.83.972 6.81 3.564.32.972-1.3 1.296-1.95 2.268zm-165.264 6.157c-1.945-2.268-5.509-2.592-7.454-1.296-2.592 1.62-3.24 4.861-1.296 6.805s5.509 2.269 7.453.648c2.593-1.62 2.917-4.536 1.297-6.157zm-6.806 65.135c2.917-.648 4.537-3.241 3.241-5.833-.972-2.268-3.565-3.565-6.805-2.917-2.917.649-4.213 3.241-3.241 5.509.973 2.593 3.889 4.213 6.805 3.241zM823.392 15.23c-.972-2.592-4.213-3.888-6.805-3.24-2.917.648-4.213 3.24-3.241 5.833.972 2.268 3.565 3.889 6.805 3.24 2.269-.972 3.889-3.564 3.241-5.833zM892.741 0h-10.046c.649 1.62 2.593 2.916 4.861 3.24 2.593.325 4.861-1.296 5.185-3.24zm-69.023 0h-10.694c0 .972 0 1.62.648 2.268.972 2.269 3.889 3.889 6.805 2.917 2.593-.648 3.889-2.917 3.241-5.185zm-31.109 17.499l1.296 6.48c.648-.647.648-1.295.972-2.267 0-1.945-.648-3.241-2.268-4.213zm63.19 75.504c2.268 1.296 5.833.648 7.129-1.296 1.62-2.269.972-5.185-1.944-6.481-2.592-1.296-5.833-.972-7.453 1.62-1.296 1.944-.324 4.86 2.268 6.157zm4.861-50.228c2.916.324 5.833-1.62 6.157-4.213s-2.268-4.86-5.185-5.185-5.185 1.62-5.509 3.889c-.324 2.592 1.62 5.185 4.537 5.509zM835.384 15.23c-2.917-.324-6.157 1.62-6.157 4.213-.324 2.592 1.944 4.86 5.185 4.86 2.916.325 5.833-1.943 5.833-4.212.324-2.592-1.945-4.86-4.861-4.86zm285.166 30.785c-1.94-1.944-5.19-2.592-7.45-1.296-2.6 1.62-3.24 4.537-1.62 6.481 2.26 1.944 5.51 2.593 8.1.972 1.94-.972 2.27-3.888.97-6.157zM960.144 8.75c-1.944 1.297-2.917 4.213-1.296 6.157 2.268 1.945 5.509 2.593 8.101 1.297 1.944-1.62 2.592-4.213.972-6.481-1.944-1.945-5.185-2.593-7.777-.973zm-138.37 45.368c-2.917-.648-5.509.648-6.481 3.24s.972 5.185 3.888 5.833c3.241.324 5.833-.972 6.805-3.564.324-2.269-1.62-4.861-4.212-5.51zm205.776 3.24c-.65 2.593 1.29 5.185 3.89 5.833 2.91.648 5.83-.972 6.48-3.24.97-2.593-.98-5.185-3.57-5.833-3.24-.648-6.16.972-6.8 3.24zM943.617 7.453c.972 2.269 3.889 3.889 6.805 3.24s4.537-2.916 4.213-5.508c-1.296-2.269-4.213-3.889-7.129-3.24-3.241.647-4.861 3.24-3.889 5.508zm-43.423 36.294c1.296 2.268 3.889 3.889 7.129 3.24 2.917-.648 4.213-3.24 3.241-5.508-.648-2.593-3.565-4.213-6.805-3.24-2.593.647-4.537 2.916-3.565 5.508zm43.747 11.342c-2.916.648-4.536 2.916-3.564 5.185.648 2.592 3.888 4.212 6.805 3.24s4.212-3.24 3.564-5.509-4.212-3.564-6.805-2.916zm81.659 17.499c-3.24-.324-5.51 1.296-6.15 4.212-.33 2.593 1.94 4.537 5.18 4.861 2.92.324 5.51-1.62 5.83-3.889-.32-2.268-1.94-4.86-4.86-5.184zm-53.142-10.694c2.592.972 5.833.648 7.453-1.62s.324-5.185-2.268-6.157c-2.269-1.62-5.509-.648-7.454 1.62-1.296 2.268-.648 4.86 2.269 6.157zm-41.155-41.803c-2.592-1.296-6.157-.324-7.453 1.62-1.296 2.269-.648 4.861 2.268 6.158 2.593 1.62 5.833.648 7.13-1.62 1.62-2.27.648-4.862-1.945-6.158zm19.443 63.19c1.621-2.268.648-5.184-1.944-6.48s-5.833-.325-7.453 1.944c-1.62 1.944-.648 4.86 2.268 6.157 2.269 1.62 5.509.648 7.129-1.62zm35.97-3.564c-1.944-1.945-5.185-2.593-7.453-.648-1.944 1.296-2.268 4.536-.324 6.48s5.509 1.945 7.453.649c2.268-1.944 2.268-4.86.324-6.481z"/><path d="M1099.5 0h-10.69v.324c0 2.592 2.26 5.185 5.18 5.185 2.92.324 5.51-1.944 5.51-4.537V0zM916.734 0h-10.046c0 .324-.324.648-.324.972-.324 2.269 1.62 4.537 4.861 5.185 2.916.324 5.509-1.296 6.157-3.565 0-.972-.324-1.944-.648-2.592zm-82.309 0h-10.694c0 .972.324 1.944 1.296 2.916 1.944 1.945 5.509 1.945 7.777.649.648-.973 1.296-2.269 1.621-3.565zm-49.58 0h-9.074c-.324.648-.648 1.296-.648 1.944 0 2.593 1.944 5.185 4.861 5.185 2.916.324 5.509-1.944 5.833-4.537 0-.972-.324-1.944-.972-2.592zm-36.294 0h-12.314c-1.62 2.268-.972 4.86 1.296 6.805 2.268 1.62 5.833 1.296 7.777-.648.972-1.296 0-2.916-.648-4.213.972 0 1.296.972 2.269.648.648-.972 1.296-1.62 1.62-2.592zM577.775 0h-10.693c-.324 2.268 1.296 4.213 3.888 4.86 3.241.649 5.833-.971 6.805-3.564 0-.324.324-.972 0-1.296zm109.854 203.505l8.425-2.593c.324-1.296 0-2.592-.972-3.888-1.944-1.945-5.509-2.593-7.777-.973s-2.593 4.861-.648 6.806c.324.324.648.324.972.648zm29.813-9.074l2.592-.972c.972-.648 1.944-1.944 1.944-3.24 0-2.269-2.268-4.537-4.86-4.861-3.241-.324-5.833 1.944-5.833 4.212 0 2.593 2.268 4.537 5.185 4.861h.972zm316.598-98.188l4.21-1.296c-.97 0-1.94 0-2.91.648-.65 0-.98.324-1.3.648zm77.77-23.98l9.08-2.916c-1.3-.972-3.24-1.62-5.19-.972-2.27.324-3.89 1.944-3.89 3.889zm-422.885 78.421c2.917-.648 4.537-3.24 3.889-5.509-.972-2.268-3.889-3.888-6.805-3.564-2.917.648-4.537 3.24-3.565 5.509.648 2.592 3.889 4.212 6.481 3.564zm81.661-35.646c.648 2.269 3.565 3.889 6.481 3.565 2.917-.648 4.537-3.24 3.889-5.509-.972-2.916-3.889-4.213-6.805-3.564-2.917.324-4.537 2.916-3.565 5.508zm-108.557 72.588c-2.269-1.62-5.833-1.296-7.453.972-1.945 1.621-1.297 4.861.972 6.481s5.833 1.297 7.453-.972c1.944-1.62 1.62-4.861-.972-6.481zm-31.757-117.63c2.592 1.62 5.833 1.296 7.777-.649s1.296-4.86-.972-6.48c-2.269-1.297-5.833-1.297-7.777.323-1.621 2.269-1.297 4.86.972 6.805zm58.653 95.919c0-1.297 1.296-2.269.324-3.241-1.944-1.944-5.509-2.592-7.777-.972s-2.592 4.861-.648 6.481c1.944 1.944 5.509 2.268 7.777.648.972-.972 0-1.62 0-2.592-1.62 1.62-1.296 4.212.972 5.833s5.833 1.296 7.453-.973c1.945-1.62 1.297-4.86-.972-6.481-1.944-.972-5.185-.648-7.129 1.297zm82.309-27.221c-2.268 1.621-2.268 4.537-.324 6.157 1.945 2.593 5.509 2.593 7.778.972 1.944-1.62 2.268-4.86.324-6.805-2.269-1.62-5.833-1.944-7.778-.324zm-137.722-34.997c-2.916-.324-5.509 1.62-6.157 3.564-.324 2.593 1.621 5.185 4.537 5.833 3.241.324 5.833-1.296 6.481-4.213.324-2.268-1.944-4.536-4.861-5.184zm-99.808-41.155c-2.268.324-4.861.972-5.185 3.24s1.945 4.537 4.861 5.185c2.917.325 5.509-1.62 6.157-4.212.324-1.945-1.62-2.917-3.564-3.889 1.296.324 2.268.972 3.24.648 2.593-1.62 3.241-4.213 1.62-6.805-1.62-1.944-5.185-2.592-7.777-1.296s-3.24 3.889-1.62 6.157c.648.648 1.62.324 2.268.972zm46.34 105.965c1.944 2.268 5.185 2.917 7.453 1.944 2.592-1.296 3.24-4.536 1.62-6.157-1.296-2.592-4.861-2.916-7.453-1.944-2.268.972-3.241 4.213-1.62 6.157zM801.047 20.739c1.62 2.269 4.861 2.917 7.453 1.62s3.565-4.212 1.621-6.156c-1.297-2.269-4.861-2.917-7.454-1.945-2.268 1.62-3.24 4.537-1.62 6.481zm-251.14 24.628c-2.269 1.297-3.565 3.889-1.62 6.157 1.62 2.269 4.86 2.917 7.453 1.945 2.592-1.62 3.24-4.213 1.944-6.806-1.62-1.944-5.185-2.268-7.777-1.296zM748.551 3.565c2.592-1.297 5.833-.324 7.453 1.296 1.62 2.592.972 5.185-1.62 6.805-2.593 1.296-5.833.648-7.453-1.944-1.621-2.269-.649-4.861 1.62-6.157zm-7.778 146.471c-1.62 2.268-.324 4.861 2.269 6.157 2.592 1.62 5.833.648 7.129-1.296 1.62-2.593.648-5.185-2.268-6.481-2.593-1.296-5.833-.648-7.13 1.62zM643.882 20.091c-2.592-1.62-5.509-.648-7.129 1.296-1.62 2.593-.648 5.185 2.268 6.482 2.593.972 5.833.323 7.453-1.62 1.297-2.27 0-5.186-2.592-6.158zM778.364 166.24c-1.621 2.268-.649 4.86 2.268 6.157 2.592 1.62 5.833.648 7.129-1.297 1.62-2.592.324-5.508-2.268-6.481-2.593-1.62-5.833-.324-7.129 1.621zM577.127 20.415c-1.296 2.269-.324 4.861 2.269 6.481 2.592.973 5.833.324 7.453-1.62 1.296-2.268.324-4.86-2.269-6.481-2.916-.972-5.833-.324-7.453 1.62zm33.378 50.552c-1.945 1.62-2.593 4.213-.649 6.157s5.509 2.593 7.778.973c1.944-1.62 2.592-4.861.648-6.805-1.945-1.62-5.509-1.945-7.777-.325zm-19.12 109.854c-2.592 1.62-2.592 4.537-.648 6.805 1.945 1.944 5.185 2.269 7.778.648 2.268-1.62 2.268-4.536.648-6.157-1.945-2.268-5.509-2.916-7.778-1.296zM535.649 77.448c-2.269 1.62-2.593 4.861-.649 6.482 1.945 1.944 5.185 2.268 7.778.648 2.268-1.297 2.268-4.213.648-6.157-1.944-1.945-5.509-2.269-7.777-.973zm163.97-72.263c-2.917-.648-5.833.972-6.481 3.564-.324 2.269 1.296 5.185 4.213 5.185 2.916.648 5.832-.648 6.481-3.24.648-2.269-1.297-4.861-4.213-5.51zM540.833 17.823c-2.916-.648-5.833.972-6.157 3.24-.648 2.593.973 5.185 3.889 5.51 2.917.647 5.833-.973 6.481-3.241.972-2.593-1.296-4.861-4.213-5.51zm99.484 145.823c-2.592-.972-5.833 0-7.129 2.269s.324 4.86 2.917 6.157c2.916.972 6.157 0 7.129-2.269s0-4.861-2.917-6.157zm197.672-153.6c-1.62-1.297-2.916-2.917-2.268-4.861 1.296-2.269 4.212-3.24 7.129-2.269s3.889 3.89 2.592 6.157c-.972 2.269-3.888 2.917-6.481 2.269.324.648 1.621.648 1.296 1.62-.324 2.593-3.24 4.213-6.156 3.889-2.917-.648-4.861-2.917-4.537-5.185.324-2.593 3.24-4.213 6.157-4.213 1.296.324 1.296 1.62 2.268 2.593zM692.814 79.069c2.916.972 5.833.324 7.129-2.269 1.296-2.268 0-4.86-2.917-6.157-2.916-.972-5.832 0-7.129 2.269-.972 2.268 0 5.184 2.917 6.157zM541.157 26.572c2.593-.648 5.833.324 6.481 3.24.973 2.27-.648 4.862-3.24 5.51-2.917.648-6.157-.973-7.129-3.24s.972-5.186 3.888-5.51zm247.9 116.983c-2.916.648-4.861 3.241-3.888 5.509a5.69 5.69 0 0 0 7.129 3.565c2.592-.649 4.212-3.241 3.24-5.509-.648-2.593-3.564-4.213-6.481-3.565zm-32.405-99.16c2.592 1.62 5.833.648 7.453-1.296 1.945-1.62.972-4.86-1.62-6.481-2.592-.972-5.833-.648-7.453 1.296-1.62 2.268-.972 5.185 1.62 6.481zm-102.724 57.033c2.592 1.621 5.832.648 7.453-1.296 1.62-2.268.972-4.86-1.621-6.481s-5.832-.972-7.777 1.296c-1.296 2.269-.648 4.861 1.945 6.481zm7.453-8.101c-2.593-1.62-3.241-4.213-1.621-6.481s4.861-2.916 7.454-1.296c2.268 1.62 3.24 4.212 1.62 6.48s-5.185 2.917-7.453 1.297zm-5.833-22.36c-2.917-.324-5.509 1.297-5.509 4.213 0 2.592 2.268 4.537 5.185 4.86s5.509-1.295 5.833-4.212c-.324-2.916-2.917-4.86-5.509-4.86zm264.426-7.777c-2.268 1.62-2.592 4.86-.324 6.805 1.945 1.945 5.509 1.945 7.778.648 1.944-1.62 2.268-4.86.324-6.805-2.269-1.944-5.509-2.268-7.778-.648zm147.766 21.388c2.59-1.297 3.57-3.889 1.62-6.157-1.62-2.269-4.86-2.917-7.45-1.945-2.27 1.62-3.24 4.213-1.62 6.805 1.3 1.945 4.86 2.593 7.45 1.297zm42.13-51.849c2.59-1.296 3.56-4.212 1.94-6.157-1.62-2.268-5.18-2.916-7.77-1.944-2.27 1.296-3.24 4.537-1.3 6.157 1.3 2.592 4.86 3.24 7.13 1.944zm-130.594 7.13c-2.593.648-4.537 3.24-3.565 5.508.972 2.917 4.213 3.889 6.805 3.24 2.917-.647 4.537-2.916 3.565-5.508-.648-2.268-3.889-3.889-6.805-3.24zm60.594 41.478c-1.62 2.268-.64 5.509 1.62 6.481 2.6 1.62 6.16 1.296 7.78-.972s.97-5.185-1.94-6.481c-2.6-1.296-5.51-.972-7.46.972zm-112.442 8.101c-2.593-1.62-5.833-1.296-7.454.972s-.972 5.185 1.621 6.482c2.592 1.62 6.157 1.296 7.453-.973 1.62-2.268.972-5.508-1.62-6.48zm28.516-17.823c-2.592-1.62-6.157-.972-7.453.973-1.62 2.268-.648 5.509 1.62 6.48 2.593 1.621 5.509 1.297 7.453-.971 1.297-2.269.324-5.185-1.62-6.481zm21.712-4.212c2.268 1.62 5.833.972 7.453-1.296s.972-4.861-1.945-6.481c-2.592-1.62-5.508-.648-7.453 1.296-1.296 2.268-.324 4.86 1.945 6.48zm19.767-21.712c2.917.324 5.187-1.62 5.507-4.212 0-2.269-1.94-4.537-4.859-4.861-3.241-.324-5.509 1.944-5.833 4.213-.324 2.592 1.944 4.86 5.185 4.86z"/><path d="M1096.91 0h-10.04c-.33.648-.33 1.296-.33 1.944.65 2.593 2.92 4.861 6.16 4.537 2.92-.648 4.86-2.592 4.54-5.509 0-.324 0-.648-.33-.972zm-21.71 0h-9.4c-.97 1.296-.64 3.24.33 4.86 1.62 2.27 5.18 2.917 7.45 1.297 2.59-1.296 3.24-3.889 1.62-6.157zM931.322 0h-10.694c.324 1.944 2.593 3.565 5.509 3.24 2.268.325 4.537-.972 5.185-3.24zM742.724 0h-9.722l.972.972c2.269 1.944 5.833 1.296 7.777 0 .649-.324.973-.648.973-.972zm-148.74 0h-5.509a7.652 7.652 0 0 0-2.593 2.916c-.648 2.269.972 4.861 3.889 5.51 2.916.972 5.833-.649 6.481-2.917S595.928.972 593.984 0zm344.791 125.732l8.425-2.592c.324-1.62 0-3.241-1.296-4.537-2.268-1.296-5.509-1.944-7.777 0-1.944 1.62-2.268 4.861 0 6.481a.7.7 0 0 0 .648.648zm169.805-52.496l5.51-1.945c1.62-2.268 1.29-5.184-.97-6.48-2.6-1.62-6.16-.973-7.78.972-1.62 1.62-.97 4.86 1.62 6.48.32.325.97.649 1.62.973zM524.961 5.509v9.073h1.62c2.916-.324 4.861-2.592 4.213-4.86-.325-2.593-2.917-4.213-5.833-4.213zm169.803 5.185c-2.917.324-4.537 2.592-4.213 4.86.648 2.593 3.241 4.213 6.157 3.89s4.861-2.593 4.213-4.862-3.241-4.212-6.157-3.888zm53.468 41.154c-2.268-1.62-5.832-1.62-7.777.648-1.62 1.62-1.62 4.537.324 6.481 2.593 1.62 6.157 1.62 8.102-.324s1.296-4.86-.649-6.805zm2.917-51.2c-3.241 0-5.509 1.944-5.833 4.537.324 2.268 2.916 4.537 5.833 4.537 2.916.324 5.509-1.62 5.509-4.213s-2.593-4.86-5.509-4.86zM712.911 68.7c-3.241-.324-5.509 1.62-5.509 4.213-.324 2.592 2.268 4.86 5.509 4.536 2.916.325 5.509-1.62 5.509-4.212-.324-2.269-2.593-4.861-5.509-4.537zm-157.166-5.51c-.324-2.268-2.916-4.537-5.832-4.537-2.593 0-4.213 1.62-4.537 3.565-1.296-.324-1.62-.972-2.593-1.296-2.916.972-4.212 3.564-3.564 6.157.972 2.268 4.213 3.888 7.129 2.916 1.62-.648 1.62-2.268 1.944-3.564.648.324.648 1.296 1.621 1.296 3.24 0 5.508-1.944 5.832-4.537zm201.237-30.137c2.916 0 5.509-1.944 5.185-4.212 0-2.593-2.269-4.861-5.185-4.861-3.241-.324-5.833 1.944-5.509 4.212 0 2.593 2.268 4.213 5.509 4.861zm-172.072 75.18c0 2.593 2.269 4.537 5.185 4.861s5.833-1.944 5.509-4.213c.324-2.592-2.268-4.86-5.185-4.86-2.916-.324-5.833 1.62-5.509 4.212zm-34.025-38.238c2.916.324 5.185 2.269 5.509 4.537 0 2.916-2.269 4.537-5.509 4.86-2.917-.323-5.509-2.268-5.185-4.86-.324-2.916 2.268-4.86 5.185-4.537zm227.484-31.109c0-1.296.648-2.268 0-2.916-2.268-1.62-5.833-1.62-7.777.648-1.62 1.62-1.62 4.537.324 6.48 1.296.649 2.592 0 3.889-.323.324.648-.972.972-.324 1.944 1.62 1.944 4.86 2.917 7.129 1.944 2.592-.972 3.24-3.888 2.268-6.48-1.296-1.62-3.24-1.62-5.509-1.297zM621.204 99.16c-2.916.324-5.185 2.916-4.861 5.185s3.241 4.212 6.157 3.888 4.861-2.592 4.537-5.184c-.324-2.269-2.592-4.537-5.833-3.89zm140.315-83.605c2.916-.325 5.508 1.62 5.833 4.212.648 2.593-1.621 4.537-4.537 4.861s-5.833-1.296-6.157-3.889 1.944-5.184 4.861-5.184zM569.356 7.453c-2.269-1.944-5.509-1.944-7.453-.324-2.269 1.944-2.269 4.537 0 6.805 2.268 1.945 5.508 1.945 7.453.324 1.944-2.268 1.944-5.185 0-6.805zm68.051 67.403c2.592-1.62 3.564-4.213 1.296-6.157-1.62-2.268-4.861-2.916-7.453-1.62-2.269 1.296-2.917 4.213-1.621 6.157 1.945 2.268 5.509 2.916 7.778 1.62zm-14.259 41.479c0-1.297.648-2.269-.324-2.917-2.268-1.62-5.833-1.62-7.777.648-1.62 1.621-1.62 4.537.324 6.481 2.268 1.621 6.157 1.621 7.777-.324.648-.648-.324-1.296-.324-1.944 1.621 1.62 4.537 2.592 6.805 1.296 2.593-1.296 3.241-3.888 1.621-6.157s-4.861-2.592-7.454-1.62c-1.296.648-.972 2.592-.648 4.537zm41.479-105.641c-.972 2.592.648 4.86 3.565 5.833 2.592.972 5.833-.324 6.805-2.917.648-2.268-.972-5.185-3.889-5.833-2.916-.972-5.833.648-6.481 2.917zM783.23 3.889c-2.592-.973-5.509.324-6.481 3.24-.972 2.269.972 5.185 3.889 5.833 2.592.648 6.157-.648 6.805-2.916.648-2.917-1.296-5.185-4.213-6.157zm-90.734 19.767c-1.297-2.269-4.861-3.565-7.13-2.269-2.916.973-3.888 3.565-2.916 5.833 1.296 2.593 4.537 3.565 7.129 2.593 2.916-1.296 3.889-3.889 2.917-6.157zm30.784 6.805c-1.296-2.592-4.536-3.24-7.453-2.268s-3.888 3.888-2.916 5.832c1.296 2.593 4.536 3.565 7.453 2.269 2.916-.972 3.889-3.565 2.916-5.833zm-191.514 76.8c1.296 2.269 4.536 3.241 7.129 2.269 2.592-.649 3.888-3.565 2.916-5.833-1.62-1.945-4.536-3.241-7.129-2.269-2.916.972-4.213 3.565-2.916 5.833zm149.712-6.157c1.944-2.268 1.296-5.185-.972-6.805s-5.833-.972-7.778 1.296c-1.62 1.62-.972 4.861 1.297 6.481 2.268 1.297 5.832.649 7.453-.972zm-99.484-21.387c-2.269-1.62-5.833-.972-7.453.972-1.945 2.268-1.621 5.185.972 6.805 2.268 1.62 6.157.972 7.777-.972 1.62-2.269 1.296-5.185-1.296-6.805zM963.727 102.4c1.296 2.269 4.213 3.565 7.129 2.917 2.593-.648 4.213-3.565 3.241-5.833-1.297-2.268-3.889-3.565-7.129-2.916-2.269.648-3.889 3.564-3.241 5.832zM896 113.094c2.917-.324 5.185-2.916 4.537-5.509s-3.241-4.212-6.157-3.888-5.185 2.916-4.537 5.509c.324 2.592 2.917 4.212 6.157 3.888zm27.545-88.79c2.592-.324 4.86-2.917 4.536-5.185-.648-2.592-3.24-4.213-6.157-3.889-2.268 0-3.564 1.945-3.888 4.213-1.945-1.296-4.213-2.592-6.157-.972-2.269 1.296-3.241 4.213-1.296 6.481 1.62 1.944 4.86 2.592 7.453 1.296 1.944-1.62 1.62-3.564.972-5.509.972 1.945 2.268 3.565 4.537 3.565zm78.095 47.96c2.92-.324 5.19-2.269 4.54-4.861-.33-2.917-3.24-4.861-6.16-4.537s-5.184 2.917-4.536 5.185c.324 2.916 3.241 4.537 6.156 4.213zM659.442 197.996c-2.916.324-5.185 2.916-4.537 5.509s3.241 4.212 6.157 3.888 4.861-2.916 4.537-5.509-2.916-4.212-6.157-3.888zm35.97-58.33c-2.268-1.62-5.833-1.296-7.777.649-1.621 1.944-1.621 4.536.648 6.481 2.268 1.62 5.509 1.62 7.453-.324 2.268-1.621 1.62-4.861-.324-6.806zm95.595-72.911c2.593 1.62 5.833 1.296 7.778-.648 1.944-1.62 1.62-4.537-.324-6.481-2.269-1.62-5.833-1.297-7.778.648-1.944 1.62-1.62 4.536.324 6.48zm-76.152 53.792c-2.592-1.62-5.833-1.62-7.777 0-1.944 1.945-1.62 5.185.648 6.481 1.944 1.945 5.509 1.621 7.453-.324 1.944-1.296 1.944-4.212-.324-6.157zm387.565-69.67c3.24-.325 4.86-2.593 4.54-4.862-.33-2.592-2.92-4.86-5.83-4.536-2.92.324-5.19 2.916-4.87 5.508.33 2.269 2.92 4.213 6.16 3.89zm-285.489 94.946c2.593 0 4.537-2.592 4.537-4.86-.324-2.593-3.24-4.213-5.833-4.537-3.24.324-5.185 2.916-4.861 5.185.325 2.592 2.917 4.212 6.157 4.212zM953.033 5.509c-2.916.324-5.185 2.916-4.86 5.509s3.24 4.212 6.157 3.888c2.592 0 4.86-2.268 4.536-4.86s-3.24-4.213-5.833-4.537zM784.202 162.674c2.269 1.944 5.509 1.944 7.453.324 2.269-1.944 2.269-4.537 0-6.805-1.944-1.944-5.508-1.62-7.453-.324-1.944 2.268-1.944 4.861 0 6.805zm307.848-109.53c-2.91-.648-5.83.649-6.48 3.241-.97 2.593.65 4.86 3.57 5.509 2.91.972 5.5-.324 6.48-2.916.97-2.593-.33-4.861-3.57-5.834zM815.959 84.578c-2.916-.973-5.509.324-6.481 2.916-.648 2.268.648 4.86 3.565 5.833 2.916.648 6.157-.648 6.805-2.916.648-2.593-.972-4.861-3.889-5.833zm19.443 46.663c-2.916-.648-6.157.648-6.805 2.917-.972 2.268.973 4.86 3.889 5.832 2.916.649 5.833-.648 6.481-3.24.972-1.944-.648-4.861-3.565-5.509zm-33.701-3.889c-.972 2.593.972 5.185 3.889 5.833s5.833-.324 6.805-2.916c.972-2.268-.648-4.861-3.889-5.833-2.916-.648-5.833.648-6.805 2.916zM945.904 99.16c-2.916-.648-6.157.648-6.805 2.916-.972 2.593.972 5.185 3.889 5.833 2.592.972 5.509-.324 6.481-3.24.972-1.944-.648-4.861-3.565-5.51zm-79.393-80.69c-2.916.972-3.888 3.889-2.592 6.157.972 2.268 4.537 3.24 7.129 2.268 2.593-.648 3.889-3.564 2.917-5.833-1.621-2.268-4.537-3.24-7.454-2.592zm22.684 48.284c-1.296-2.269-4.537-3.565-6.805-2.917-2.916.972-4.213 4.213-2.592 6.157.972 2.269 4.212 3.889 6.805 2.917 2.592-1.297 3.888-3.889 2.592-6.157zm-106.937 7.453c-2.917.972-3.889 3.564-2.593 6.157.973 2.268 4.537 3.24 7.13 2.268 2.916-.972 3.888-3.564 2.916-5.833-1.62-2.592-4.861-3.564-7.453-2.592zm289.382-29.489c-.98-1.62-3.24-2.268-5.51-1.944.97-1.62 1.29-4.213-.97-5.833-2.6-1.62-6.16-.972-7.46.648-1.94 2.268-.97 4.86 1.3 6.481 1.62.972 3.56 0 5.18-.648-1.62.972-3.24 2.916-2.27 4.537 1.3 2.268 4.54 3.24 7.13 2.268 2.92-.324 3.89-3.24 2.6-5.509z"/><path d="M938.446 0h-10.693c-.324.972 0 1.944.648 2.916.972 2.269 4.212 3.241 7.453 2.269 1.944-.648 2.916-3.24 2.592-5.185zM789.382 0h-5.508c.324 0 .648.324.972.324 1.62.324 3.24.324 4.536-.324zM656.521 0h-1.62c.324.324.648.324.972.324 0 0 .324-.324.648-.324zm-2.592 0h-9.398c0 .972.324 1.62.972 2.592 1.621 1.945 5.185 2.593 7.778.973 1.296-.973.972-2.269.648-3.565zM610.83 0h-8.102c.324.324.973.648 1.297.648 2.592.972 5.184.972 6.805-.648zm-58.978 0h-9.721c.324.324.648.972 1.296 1.296 2.268 1.62 5.509 1.62 7.777 0 0-.648.324-.972.648-1.296zm215.171 178.877l2.592-.648c1.296-.648 2.269-2.269 1.945-3.889-.325-2.268-2.593-4.537-5.509-4.537-3.241 0-5.185 2.269-5.185 4.861 0 2.917 2.268 4.537 5.509 4.537.324-.324.324-.324.648-.324zm229.105-70.968l8.422-2.592c.33-.648.33-1.62 0-2.268-.97-2.593-3.89-4.213-6.802-3.565-2.593.648-4.537 3.565-3.565 5.509 0 1.62.648 2.268 1.945 2.916zm-471.172-75.18v9.074c1.62.324 3.24.324 4.861-.648 2.592-1.62 2.916-4.537.972-6.481-1.296-1.62-3.889-2.269-5.833-1.945zm29.813 97.216c3.24 0 5.509-1.944 5.509-4.537-.324-2.268-2.593-4.537-5.509-4.861-3.241 0-5.509 2.269-5.185 4.537 0 2.917 2.592 4.861 5.185 4.861zm90.41-16.527c0 2.269 2.269 4.537 5.185 4.861 3.241 0 5.509-2.268 5.509-4.537 0-2.916-2.268-4.861-5.509-4.861-2.916 0-5.185 2.269-5.185 4.537zm-94.623 31.433c.324-1.296 1.944-1.944.972-2.916-1.296-2.269-4.537-3.565-7.129-2.593s-4.213 3.889-2.592 6.157c1.296 2.269 4.536 3.241 7.453 2.269.972-.648.648-1.621.972-2.593-1.944 1.297-2.592 3.889-.648 5.833 1.62 1.945 5.185 2.593 7.453.972 2.268-1.296 2.917-4.536.972-6.157-1.944-2.268-5.185-2.916-7.453-.972zm87.818-8.425c-2.592.972-3.564 3.564-2.268 5.833.972 2.916 4.536 3.888 7.129 2.592s3.564-4.212 2.268-6.481c-.972-1.944-4.536-2.916-7.129-1.944zm64.811-106.613c.972 2.592 3.888 3.888 6.481 3.24 2.916-.648 4.536-3.24 3.564-5.509-.648-2.592-3.888-3.888-6.481-3.24s-4.537 3.24-3.564 5.509zM657.493 1.944c2.917-.648 5.833.972 6.805 2.917.972 2.592-.324 5.185-3.564 6.157-2.917.648-5.833-.648-6.805-3.24-.973-2.917.648-4.862 3.564-5.834zM605.645 140.64c-2.268 1.62-1.62 4.536.324 6.157 1.944 1.944 5.509 1.944 7.453.324 2.268-2.269 2.268-4.861-.324-6.805-2.268-1.297-5.509-1.297-7.453.324zm31.757 23.979c-2.268 1.621-1.944 4.537.324 6.157 1.944 1.945 5.509 1.945 7.453.324 2.269-2.268 1.945-5.184-.324-6.805-1.944-1.944-5.509-1.296-7.453.324zm-97.54 8.75c-2.592.972-4.212 3.888-2.592 6.481 1.296 2.268 4.537 3.24 7.453 2.268 2.592-.972 3.889-3.564 2.592-5.833-1.944-2.592-4.86-4.212-7.453-2.916zM734.294 11.666c-2.593 1.296-3.889 3.889-2.593 6.48 1.296 2.27 4.537 3.241 7.453 2.27 2.593-1.297 3.889-3.565 2.593-6.158-1.621-2.268-4.861-3.888-7.453-2.592zm8.101 15.878c-1.296-1.62-2.269-3.564-.648-4.86 1.944-1.945 5.185-2.269 7.453-.649 2.592 1.62 2.592 4.537.972 6.482s-4.537 1.944-6.805.648c0 .648 1.296.972.972 1.944-.972 2.268-4.537 3.24-7.129 2.592-2.592-1.296-3.889-3.888-2.916-6.157 1.296-2.592 4.212-3.24 7.129-2.592.972.324.324 1.62.972 2.592zM580.369 62.218c2.592 1.62 5.509 1.62 7.453-.648 1.944-1.944 1.62-4.86-.972-6.481s-5.833-1.296-7.453.648c-1.945 1.944-1.621 4.86.972 6.481zm74.208 82.957c-3.241 0-5.509 1.945-5.509 4.537 0 2.917 2.592 5.185 5.833 5.185 2.916 0 5.185-2.268 4.861-4.537.324-3.24-2.269-5.185-5.185-5.185zm-1.621-102.4c1.945 1.944 5.509 1.944 7.778.324 2.268-1.296 2.268-4.537.324-6.481-2.269-1.62-5.509-1.944-7.777-.324-2.269 1.944-2.269 4.537-.325 6.48zM535.65 75.18c1.944 1.944 5.509 1.944 7.777.324s2.268-4.537.324-6.48c-2.268-2.27-5.509-2.27-7.777-.325-2.269 1.62-2.269 4.213-.324 6.481zm9.721-6.157c-1.944-1.944-1.62-4.86.324-6.481 2.269-1.62 5.833-1.62 7.777.324s1.945 4.86-.648 6.481c-2.268 1.62-5.509 1.62-7.453-.324zm.972-23.008c-2.916-.972-5.833 0-6.805 2.593s.648 4.86 3.565 5.833c2.592.648 5.833 0 6.805-2.593s-.972-4.86-3.565-5.833zm166.563 143.88c.972-2.593-.648-4.861-3.564-5.833s-5.509.324-6.482 2.916.649 4.861 3.241 5.509c3.241.972 5.833-.324 6.805-2.592zm-141.287-20.416c-3.24-.972-6.157.648-7.129 2.593-.972 2.592.648 4.86 3.565 5.833s5.833 0 6.805-2.593c.972-2.268-.324-4.861-3.241-5.833zM690.222 3.241c-2.916-.973-5.833.648-6.481 2.916-.972 2.592.324 5.185 3.241 6.157s6.157-.648 7.129-3.24c.648-1.945-.972-4.861-3.889-5.833zm265.075 39.21c-2.592 1.296-3.565 4.212-2.268 6.48s4.86 3.241 7.453 2.27 3.564-3.565 2.268-6.482c-1.62-2.268-4.861-3.564-7.453-2.268zm4.537-31.757c-2.593.972-3.565 3.564-2.269 5.833s4.213 3.24 7.13 1.944c2.592-.972 3.888-3.565 2.592-5.833-1.296-1.944-4.861-2.916-7.453-1.944zM806.233 96.567c-2.592.973-3.889 4.213-2.268 6.482 1.296 2.268 4.536 3.24 7.453 2.268 2.592-1.296 3.564-4.213 2.268-6.481-1.62-2.593-4.86-3.565-7.453-2.269zm12.638-65.458c-2.916-.972-5.833.324-7.129 2.592-.972 2.269.324 4.861 2.916 6.157 2.917.973 5.833 0 7.13-2.268s-.324-5.185-2.917-6.481zm11.342-23.332c-2.917-.972-6.157 0-7.453 1.945-.972 2.592.324 5.184 2.916 6.157 2.593 1.296 5.833.324 7.129-2.269 1.297-1.944.324-4.86-2.592-5.833zM1047 41.48c-2.26-1.62-5.83-1.62-7.77 0-1.95 1.62-1.95 4.536.32 6.805 2.27 1.62 5.51 1.62 7.45 0 2.27-1.62 2.27-5.185 0-6.805zm-45.36 13.934c-2.272 1.944-1.948 4.537 0 6.157 2.26 2.268 5.83 1.62 7.77 0 2.27-1.62 1.62-4.537-.32-6.157-1.94-1.944-5.19-1.944-7.45 0zm65.13-37.914c-2.27 1.944-2.27 5.185.33 6.805 2.26 1.62 5.5 1.62 7.45 0 2.27-1.944 1.62-4.86-.33-6.805-1.94-1.62-5.5-1.62-7.45 0zm-62.54 12.962c2.59 1.62 5.83 1.62 7.78 0 1.94-1.944 1.94-5.185-.33-6.805-2.59-1.62-5.83-1.62-7.78 0-1.62 1.944-1.62 4.86.33 6.805zm-24.305 20.091c2.592-.972 3.889-3.564 2.592-5.833s-4.536-3.888-7.129-2.592c-2.592.972-4.212 3.888-2.592 6.48 1.296 2.27 4.537 3.241 7.129 1.945zm56.385 6.157c-2.59.972-5.83.324-7.45-2.268-1.3-2.593 0-5.185 2.59-6.481 2.59-.972 5.83 0 7.13 2.592 1.29 2.593.32 5.185-2.27 6.157zM910.902 29.813c2.916 1.296 6.157.324 7.129-1.62 1.62-2.269.648-5.185-2.268-6.482-2.593-1.296-5.833-.324-7.129 1.62-1.297 2.593-.324 5.186 2.268 6.482zM871.044 87.17c-2.917 0-5.509 2.268-5.185 4.537 0 2.916 2.916 4.537 5.509 4.537 3.24 0 5.508-1.62 5.184-4.537.324-2.269-2.268-4.537-5.508-4.537zm-65.459 35.97c-1.944-1.945-5.185-2.593-7.453-.648-2.269 1.62-2.593 4.86-.324 6.481 1.944 1.944 5.509 2.592 7.453.972 2.268-1.944 2.592-5.185.324-6.805zm33.053-11.018c-2.268-2.268-5.833-2.268-7.777-.972-2.268 1.62-2.268 5.185-.324 6.481 1.944 1.944 5.185 2.592 7.453.972 2.593-1.62 2.593-4.537.648-6.481zm22.684.972c1.62 1.944 5.509 2.269 7.777.324s2.269-4.536.324-6.805c-1.944-1.944-5.185-1.944-7.777-.324-2.268 1.944-2.268 4.861-.324 6.805zm131.565-34.025c2.917.972 5.833-.648 6.805-3.24.648-1.945-.648-4.862-3.564-5.834s-6.157.648-6.805 2.593c-.649 2.916.648 5.509 3.564 6.48zM886.922 96.567c2.917.973 5.509-.323 6.481-2.916.648-1.944-.648-4.86-3.24-5.509-3.241-.972-6.157.648-6.806 2.593-.972 2.592.325 4.86 3.565 5.832z"/><path d="M1067.75 0h-11.02v.648c.32 2.593 2.91 4.213 6.16 4.213 2.91-.324 5.18-2.269 4.86-4.861zM915.442 0h-2.269c-.972.324-2.268.648-2.916 1.62-1.945 1.945-1.621 4.861.648 6.157 2.268 2.269 5.833 1.945 7.777 0 1.62-1.944 1.296-5.185-.648-6.805-.648-.324-1.62-.972-2.592-.972zm5.833 131.241l9.073-2.916c-.324-.324-.648-.648-1.296-.648-2.917-1.297-5.833 0-7.453 2.268-.324.324-.324.972-.324 1.296zM524.959 4.537v8.75c1.62-.325 2.916-.973 3.564-2.27 1.297-2.268 0-5.508-2.916-6.156 0 0-.324-.324-.648-.324zm0 72.911v6.806c.972-.649 1.62-1.62 1.62-2.917.324-1.62-.324-2.916-1.62-3.889zm31.757 114.715l6.805 2.916c-.324-.648-.972-1.296-1.62-1.944-1.621-1.296-3.565-1.62-5.185-.972zm107.261 2.592c2.593-.648 3.889-3.564 2.917-5.833-1.297-2.592-4.537-3.888-7.13-2.592-2.916.972-4.212 3.565-2.916 6.157 1.296 1.944 4.537 3.24 7.129 2.268zM831.512 23.332c2.917-.972 3.889-3.889 2.917-6.157-1.297-2.269-4.537-3.24-7.13-2.593-2.916.973-3.888 3.889-2.592 6.157.972 2.593 4.213 3.889 6.805 2.593zm-20.091 40.182c-2.593-1.296-5.833-.648-7.453 1.944-1.621 1.945-.324 4.861 1.944 6.157 2.592 1.297 5.833.649 7.129-1.62 1.944-1.944.972-5.185-1.62-6.48zm22.683-24.952c0-1.296.973-2.268-.324-3.24-2.268-1.62-5.832-1.945-7.777 0s-1.944 5.184.324 6.805 5.833 1.62 7.777-.324c.649-.972-.324-1.62-.324-2.593-1.296 1.62-.648 4.537 1.945 5.51 2.592 1.295 5.833.647 7.129-1.621 1.62-1.944.648-5.185-1.944-6.157-2.269-1.296-5.509-.648-6.806 1.62zm187.306 46.016c-1.62 1.944-.65 5.184 1.94 6.157 2.59 1.296 5.83.648 7.45-1.62 1.62-1.945.65-5.185-1.94-6.158-2.92-1.296-5.83-.648-7.45 1.62zm-402.476 75.828c1.944-1.945 1.944-4.861-.324-6.805-2.269-1.621-6.157-1.621-8.101.324s-1.621 4.536.648 6.157c2.592 2.268 5.833 2.268 7.777.324zm-22.36-42.451c1.945-1.944 1.621-4.537-.648-6.157s-5.833-1.62-7.453.324c-1.944 1.944-1.62 4.537.648 6.157 2.268 1.944 5.833 1.62 7.453-.324zm-17.823 43.099c-1.944 1.944-1.944 5.185.324 6.805s5.833 1.62 7.778-.324 1.62-5.185-.648-6.805c-2.593-1.62-5.833-1.62-7.454.324zM564.493 4.861c-2.916.324-5.185 2.268-5.185 4.86 0 2.269 2.269 4.213 5.185 4.537 2.917-.324 5.509-2.268 5.509-4.86 0-2.269-2.592-4.213-5.509-4.537zm78.421 66.43c0 2.269 2.268 4.537 5.185 4.537 2.916-.324 5.508-2.268 5.508-4.86-.324-2.269-2.592-4.537-5.508-4.537-2.593.324-5.185 1.944-5.185 4.86zm-34.998 123.14c-2.268 1.296-2.592 4.213-.648 6.481s5.509 2.593 7.777.972c2.269-1.944 2.269-4.86.648-6.805-2.268-1.944-5.833-2.268-7.777-.648zm119.251-139.99c2.269 1.944 5.509 2.268 7.778.972s2.268-4.86.648-6.481c-1.945-2.269-5.509-2.593-7.454-.972-2.592 1.62-2.916 4.86-.972 6.48zm155.221-38.238c-.972 2.268.648 4.86 3.241 5.832 2.592 1.297 5.833 0 6.805-2.268.972-2.916-.324-5.509-3.241-6.157s-5.833.324-6.805 2.593zM632.22 81.985c2.592.648 5.833-.324 6.805-2.592s-.324-4.861-2.916-6.157c-2.917-.648-6.157.324-7.13 2.916-.648 2.269.649 4.861 3.241 5.833zm10.046 51.848c2.916.649 5.833-.324 7.129-2.916.972-2.268-.648-4.861-3.241-5.509-2.916-1.296-5.833-.324-6.805 2.593-.972 2.592 0 5.184 2.917 5.832zM922.247 27.868c-.972 2.269.324 4.861 3.24 5.833 2.593 1.297 5.833 0 6.805-2.268.972-2.916-.648-5.509-3.24-6.157-2.917-1.296-5.833.324-6.805 2.593zm-244.336 82.958c-.972 2.268.324 4.861 2.917 5.833 2.916.972 6.157 0 7.129-2.593.648-2.268-.648-4.86-3.241-5.833-2.916-1.296-5.832.324-6.805 2.593zm159.758-42.127c-1.944 1.944-1.944 5.185.324 6.805s5.833 1.296 7.777-.324c1.945-1.944 1.621-4.86-.324-6.481-2.268-1.62-5.833-1.944-7.777 0zm-84.253 87.494c1.944-1.944 1.62-5.185-.649-6.805-1.944-1.62-5.508-1.296-7.453.324-1.944 1.944-1.944 4.861.324 6.481 1.945 1.62 5.833 1.944 7.778 0zm-12.639-90.735c-2.268 1.945-1.944 4.861.325 6.806 2.268 1.62 5.508 1.62 7.777-.324 1.944-1.945 1.62-4.861-.324-6.157-2.593-1.945-5.833-2.269-7.778-.325zm45.044-23.007c-2.593-.648-5.833.972-6.481 3.24-.972 2.269.972 4.861 3.888 5.833 2.917.648 5.833-.972 6.805-3.24.324-2.593-1.296-5.185-4.212-5.833zM560.604 165.267c.973-2.269-1.296-4.861-3.888-5.833-2.917-.648-6.157.648-6.805 3.24s.972 5.185 3.888 5.509c2.917.972 6.157 0 6.805-2.916zm139.991-69.672c2.592-.972 3.889-3.888 2.592-6.157-1.296-2.592-4.536-3.24-7.129-2.268-2.916.648-3.888 3.24-2.592 6.157.972 1.944 4.213 3.24 7.129 2.268zM929.052 4.213c-2.917.972-4.213 3.888-2.917 5.833 1.297 2.592 4.861 3.888 7.453 2.916s3.565-3.889 2.269-6.157c-.972-2.592-4.213-3.889-6.805-2.592zm-160.73 119.575c2.916-.972 3.564-3.889 2.268-6.157s-4.212-3.241-7.129-2.268-3.889 3.888-2.592 6.157c1.62 1.944 4.536 3.24 7.453 2.268zm-130.917-25.6c-2.917.972-3.889 3.888-2.593 6.157s4.537 3.564 7.13 2.268c2.916-.972 3.564-3.888 2.268-6.157-.972-2.592-4.213-3.24-6.805-2.268zm70.967 25.276c-1.296-2.593-4.536-3.889-7.129-2.593-2.592.973-3.564 3.889-2.268 6.481.972 2.269 4.537 3.565 7.129 2.269 2.592-.972 3.889-3.889 2.268-6.157zm-79.717-112.77c2.917-.972 3.889-3.889 2.593-6.157-1.296-2.593-4.537-3.565-7.129-2.269-2.917.648-3.889 3.24-2.593 6.157 1.296 1.945 4.213 3.24 7.129 2.269zm333.45 98.836c-2.592-1.297-5.833-.648-7.453 1.944-.972 2.268 0 4.861 2.916 6.157s5.833 0 7.129-1.944c1.297-2.269 0-5.509-2.592-6.157zm40.505-83.606c-.32-2.592-2.915-4.537-6.155-4.212-2.917.323-4.861 2.268-4.537 4.86s2.916 4.213 5.833 4.213c2.919-.324 5.189-2.268 4.859-4.86zm-277.387 70.32c-2.917.323-5.185 1.944-4.861 4.86.324 2.269 2.917 4.213 6.157 4.213 2.917-.324 5.185-2.592 4.861-4.861-.648-2.592-3.241-4.213-6.157-4.213zM864.889 54.44c-3.24.324-5.508 2.592-5.184 4.86.324 2.593 2.916 4.213 6.157 4.213 2.916-.324 5.184-1.944 4.86-4.86-.324-2.269-2.916-4.213-5.833-4.213zm21.712 62.542c-.324-2.593-2.917-4.213-5.833-4.213-3.241.324-5.185 2.268-4.861 4.861.324 2.268 2.917 4.537 6.157 4.213 2.917 0 4.861-2.593 4.537-4.861zM634.164 30.785c-3.24.324-5.185 2.592-4.86 4.86.324 2.593 2.916 4.861 6.157 4.537 2.916-.324 4.86-2.592 4.536-5.184s-2.916-4.537-5.833-4.213zm-99.484 30.46c.324 2.27 2.917 4.538 6.157 4.214 2.917-.325 4.861-2.593 4.537-4.861-.324-2.593-2.916-4.861-5.833-4.537s-5.185 2.592-4.861 5.185zm543.76-15.23c1.94-1.944 1.94-5.184-.32-6.805-2.27-1.62-5.84-1.62-7.78.324-1.95 1.297-1.62 4.537.32 6.157 2.27 1.945 5.84 1.62 7.78.324zm35.65-9.073c2.91-.324 5.18-2.268 4.86-4.86-.33-2.593-3.24-4.213-6.16-4.213-2.59.323-4.86 2.268-4.54 4.86.33 2.917 2.92 4.537 5.84 4.213z"/></g><path d="m480.561 162.349 35.322-26.572-103.697-10.694-22.359 29.489 90.734 7.777ZM244.968.323l138.37 16.527-29.489 54.765-120.547-13.61L244.968.322ZM727.807 111.149l86.846-38.886-117.631-13.61-54.765 38.238 85.55 14.258Z" fill="#7e8fa7"/><path d="M510.052 140.315l5.833-4.537-6.157-.648.324 5.185zm-30.785-8.426l-28.84-2.916-.972 30.785 27.22 2.268 2.592-30.137zm-46.339-4.86l-20.739-2.269-13.611 18.147.649 12.314 32.081 2.917c.324-10.37.972-20.74 1.62-31.109zM249.838.972l23.656 2.917-3.241 58.329-23.656-2.592L249.838.972zm27.544 3.24l11.342 1.297-2.592 58.33-12.638-1.297a1887.65 1887.65 0 0 0 3.888-58.33zm12.962 1.621l43.747 5.185-5.833 57.681-38.238-4.213.324-58.653zM727.815 111.15l28.841-12.962 4.536-32.081L707.4 59.95l-.972 47.959 21.387 3.241zm-38.562-47.312L673.05 75.18l-1.296 26.572 14.258 2.269c1.297-12.638 2.269-26.248 3.241-40.183z" fill="#8e9db2"/></svg>