<svg xmlns="http://www.w3.org/2000/svg" viewBox="0 0 500 500" style="enable-background:new 0 0 500 500" xml:space="preserve"><path d="M229.9 367.4c29 25.7 29 73.2 0 98.9l-29.2 25.9-163.6-145c-29-25.7-29-73.2 0-98.9l29.2-25.9 163.6 145zm43.4-233c-29-25.7-29-73.2 0-98.9l29.2-25.9 163.6 144.9c29 25.7 29 73.2 0 98.9l-29.2 25.9-163.6-144.9z" style="fill:#7dc1d3"/><path d="M275.3 275.3c-29 25.7-29 73.2 0 98.9l29.2 25.9 163.6-144.9c29-25.7 29-73.2 0-98.9l-29.2-25.9-163.6 144.9zm-47.4-48.8c29-25.7 29-73.2 0-98.9l-29.2-25.9-163.6 145c-29 25.7-29 73.2 0 98.9l29.2 25.9 163.6-145z" style="fill:#90d0dc"/></svg>