<?xml version="1.0" standalone="no"?>
<!DOCTYPE svg PUBLIC "-//W3C//DTD SVG 20010904//EN"
 "http://www.w3.org/TR/2001/REC-SVG-20010904/DTD/svg10.dtd">
<svg version="1.0" xmlns="http://www.w3.org/2000/svg"
 width="700.000000pt" height="700.000000pt" viewBox="0 0 700.000000 700.000000"
 preserveAspectRatio="xMidYMid meet">
<metadata>
Created by potrace 1.14, written by Peter Selinger 2001-2017
</metadata>
<g transform="translate(0.000000,700.000000) scale(0.100000,-0.100000)"
fill="#000000" stroke="none">
<path d="M4185 6822 c-50 -46 -181 -162 -255 -227 -249 -215 -346 -368 -393
-617 -16 -87 -15 -276 3 -353 6 -27 13 -57 15 -65 8 -35 39 -119 62 -165 72
-143 162 -242 433 -475 14 -12 39 -34 55 -48 17 -15 86 -76 155 -137 69 -60
130 -114 136 -120 6 -5 46 -41 90 -80 43 -38 101 -90 129 -115 27 -25 104 -93
170 -150 66 -58 131 -116 144 -128 l24 -24 -29 -25 c-16 -13 -45 -39 -64 -56
-20 -18 -71 -63 -115 -102 -44 -38 -97 -86 -119 -105 -55 -50 -78 -71 -117
-105 -30 -26 -118 -104 -239 -211 -19 -17 -82 -73 -140 -124 -58 -50 -121
-106 -140 -124 -19 -17 -72 -65 -117 -105 -215 -192 -315 -410 -317 -691 -1
-152 5 -201 41 -310 64 -198 132 -288 383 -510 46 -41 107 -95 135 -120 27
-25 55 -49 61 -55 6 -5 28 -25 48 -43 41 -37 35 -38 92 13 6 6 44 39 85 75 40
36 94 84 119 106 25 23 86 77 135 120 108 95 154 135 169 150 6 5 49 43 96 84
47 41 90 79 96 85 11 10 82 73 264 235 280 248 337 298 387 341 17 15 55 49
85 75 29 27 87 79 128 115 271 239 447 395 456 404 6 5 42 37 79 70 38 33 79
69 91 80 12 11 35 32 50 46 201 181 307 438 298 717 -3 92 -5 117 -21 187 -4
17 -7 32 -8 35 -8 40 -55 153 -89 213 -63 111 -126 182 -276 314 -119 106
-342 302 -399 352 -35 31 -69 61 -75 66 -32 28 -110 97 -176 156 -41 37 -140
124 -221 195 -80 71 -174 154 -208 184 -35 30 -71 62 -80 71 -9 9 -99 89 -201
179 -213 187 -309 272 -355 315 -18 17 -46 41 -61 54 -26 22 -174 152 -200
176 -6 5 -44 39 -84 75 -40 36 -92 82 -114 102 -23 21 -45 37 -51 37 -5 0 -28
-16 -50 -37z"/>
<path d="M2749 5546 c-138 -120 -164 -143 -183 -161 -12 -11 -57 -51 -101 -90
-44 -38 -85 -74 -91 -80 -45 -41 -182 -163 -304 -270 -80 -70 -161 -142 -180
-159 -19 -17 -75 -67 -125 -111 -49 -43 -95 -84 -101 -90 -11 -10 -54 -48
-249 -220 -55 -49 -111 -99 -125 -111 -40 -35 -229 -203 -310 -275 -41 -37
-122 -108 -180 -159 -58 -52 -141 -125 -185 -164 -160 -142 -219 -202 -267
-276 -73 -110 -121 -225 -144 -345 -4 -22 -9 -47 -11 -55 -5 -22 -5 -222 0
-245 3 -11 8 -40 12 -65 12 -71 60 -204 100 -276 45 -81 110 -161 189 -233 33
-31 67 -63 76 -71 9 -8 50 -44 91 -80 41 -35 76 -67 79 -70 3 -3 57 -51 120
-105 109 -95 257 -225 345 -304 22 -20 94 -83 160 -141 65 -58 126 -112 135
-120 9 -8 32 -28 51 -45 39 -34 198 -175 215 -190 16 -15 153 -137 176 -157
11 -9 52 -46 92 -81 39 -35 195 -173 346 -307 151 -133 293 -259 315 -279 22
-20 57 -51 78 -69 l39 -33 47 43 c41 37 153 137 209 187 182 158 240 216 295
299 73 110 121 226 141 342 4 19 9 46 11 60 8 38 8 178 1 240 -24 189 -120
398 -242 524 -19 20 -210 191 -329 295 -16 14 -113 100 -215 191 -103 91 -219
194 -260 230 -40 36 -78 70 -84 75 -9 8 -245 216 -280 246 -13 11 4 31 94 110
47 41 90 78 96 84 31 29 190 170 518 459 38 34 76 68 85 76 9 9 54 49 101 90
47 41 90 80 96 85 6 6 42 38 80 71 385 342 426 939 91 1321 -29 33 -197 186
-372 338 -37 33 -78 69 -90 81 l-21 21 -35 -31z"/>
</g>
</svg>
